<svg version="1.1" xmlns="http://www.w3.org/2000/svg" viewBox="0 0 1057.2118072509766 426.69549560546875" width="2114.423614501953" height="853.3909912109375">
  <!-- svg-source:excalidraw -->
  
  <defs>
    <style class="style-fonts">
      @font-face {
        font-family: "Virgil";
        src: url("https://excalidraw.com/Virgil.woff2");
      }
      @font-face {
        font-family: "Cascadia";
        src: url("https://excalidraw.com/Cascadia.woff2");
      }
    </style>
    
  </defs>
  <rect x="0" y="0" width="1057.2118072509766" height="426.69549560546875" fill="#ffffff"></rect><g stroke-linecap="round" transform="translate(326.2891387939453 11.32073974609375) rotate(0 201.92453002929688 202.6873779296875)"><path d="M32 0 M32 0 C161.06 -1.49, 289.2 0.26, 371.85 0 M32 0 C114.45 2.08, 198.52 1.75, 371.85 0 M371.85 0 C391.8 0.66, 403.32 10.97, 403.85 32 M371.85 0 C394.66 -1.12, 406.09 8.37, 403.85 32 M403.85 32 C404.99 146.26, 403.95 263.64, 403.85 373.37 M403.85 32 C402.19 152.65, 402.54 273.22, 403.85 373.37 M403.85 373.37 C404.4 392.83, 392.43 404.06, 371.85 405.37 M403.85 373.37 C402.4 395.18, 395.06 406.47, 371.85 405.37 M371.85 405.37 C251.3 406.51, 132.12 407.67, 32 405.37 M371.85 405.37 C239.44 404.66, 106.88 404.64, 32 405.37 M32 405.37 C9.2 407.02, -0.02 393.88, 0 373.37 M32 405.37 C8.8 405.36, -1.45 394.26, 0 373.37 M0 373.37 C-0.76 278.76, -1.21 180.77, 0 32 M0 373.37 C1.52 296.92, 1.66 220.44, 0 32 M0 32 C-1.36 11.36, 8.77 -1.7, 32 0 M0 32 C-0.52 12.84, 8.47 0.07, 32 0" stroke="#1e1e1e" stroke-width="1" fill="none"></path></g><g stroke-linecap="round" transform="translate(339.09449768066406 20.292877197265625) rotate(0 108.00146484375 191.99191284179688)"><path d="M32 0 M32 0 C61.9 -0.71, 93.01 0.12, 184 0 M32 0 C68.55 0.39, 105.42 -0.47, 184 0 M184 0 C203.75 -1.9, 215.24 9.34, 216 32 M184 0 C206.71 0.58, 218.15 8.72, 216 32 M216 32 C215.75 156.96, 214.84 279.48, 216 351.98 M216 32 C215.59 132.55, 216.23 232.05, 216 351.98 M216 351.98 C215.22 374.75, 204.22 384.38, 184 383.98 M216 351.98 C214.56 374.68, 207.2 382.3, 184 383.98 M184 383.98 C150.57 385.52, 119.41 385.67, 32 383.98 M184 383.98 C135.94 382.67, 86.15 382.77, 32 383.98 M32 383.98 C10.06 382.66, 1.88 373.52, 0 351.98 M32 383.98 C12.34 382.54, -0.19 371.38, 0 351.98 M0 351.98 C-0.6 227.52, -1.78 102.8, 0 32 M0 351.98 C-0.26 224.5, -0.97 97.59, 0 32 M0 32 C1.36 9.32, 12.18 1.57, 32 0 M0 32 C-2.29 10.3, 9.73 1.9, 32 0" stroke="#1e1e1e" stroke-width="1" fill="none"></path></g><g stroke-linecap="round" transform="translate(413.72352600097656 57.212554931640625) rotate(0 36.808502197265625 41.55854797363281)"><path d="M18.4 0 M18.4 0 C30.7 1.35, 42.43 -0.91, 55.21 0 M18.4 0 C29.32 -0.23, 39.84 0.29, 55.21 0 M55.21 0 C67.21 -1.43, 72.8 7.37, 73.62 18.4 M55.21 0 C65.89 -0.46, 75.35 7.36, 73.62 18.4 M73.62 18.4 C74.74 28.4, 71.81 36.76, 73.62 64.71 M73.62 18.4 C74.08 35.01, 73.73 51.54, 73.62 64.71 M73.62 64.71 C72.83 78.17, 67.12 84.41, 55.21 83.12 M73.62 64.71 C74.64 74.77, 65.54 81.17, 55.21 83.12 M55.21 83.12 C46.09 82.43, 35.33 84.28, 18.4 83.12 M55.21 83.12 C44.6 82.81, 33.06 82.54, 18.4 83.12 M18.4 83.12 C7.31 85.04, -1.37 78.61, 0 64.71 M18.4 83.12 C6.7 81.62, -0.46 77.66, 0 64.71 M0 64.71 C0.46 53.05, -1.71 38.27, 0 18.4 M0 64.71 C-0.69 54.18, -0.23 44.32, 0 18.4 M0 18.4 C1.22 7.24, 6.41 1.56, 18.4 0 M0 18.4 C-1.66 6.37, 3.97 0.59, 18.4 0" stroke="#1e1e1e" stroke-width="1" fill="none"></path></g><g transform="translate(426.60205841064453 86.27110290527344) rotate(0 23.929969787597656 12.5)"><text x="23.929969787597656" y="0" font-family="Virgil, Segoe UI Emoji" font-size="20px" fill="#1e1e1e" text-anchor="middle" style="white-space: pre;" direction="ltr" dominant-baseline="text-before-edge">Chips</text></g><g stroke-linecap="round" transform="translate(415.69776916503906 294.074462890625) rotate(0 35.0548095703125 34.451934814453125)"><path d="M23.6 1.86 C29.72 -0.7, 39.8 -0.22, 46.31 1.89 C52.82 4.01, 58.64 9.08, 62.66 14.53 C66.68 19.98, 70.4 28.03, 70.45 34.61 C70.5 41.2, 67.06 48.6, 62.97 54.06 C58.89 59.52, 52.54 65.35, 45.94 67.4 C39.34 69.44, 29.87 68.54, 23.39 66.33 C16.91 64.12, 10.94 59.3, 7.06 54.14 C3.19 48.97, 0.22 41.96, 0.15 35.34 C0.08 28.72, 1.33 20.17, 6.62 14.41 C11.91 8.66, 26.03 3.12, 31.9 0.81 C37.77 -1.49, 41.8 0.29, 41.83 0.59 M28.25 -0.37 C34.54 -1.91, 44.18 0.6, 50.6 3.53 C57.02 6.45, 63.38 11.33, 66.78 17.2 C70.18 23.07, 71.97 32.24, 71 38.73 C70.02 45.22, 65.72 51.46, 60.93 56.13 C56.14 60.81, 48.95 65.28, 42.26 66.76 C35.57 68.25, 27.23 67.61, 20.79 65.02 C14.34 62.43, 6.85 56.87, 3.59 51.25 C0.34 45.63, 0.45 37.7, 1.26 31.29 C2.07 24.87, 4.23 17.65, 8.45 12.74 C12.67 7.82, 23.55 3.88, 26.6 1.8 C29.64 -0.29, 26.55 -0.19, 26.72 0.22" stroke="#1e1e1e" stroke-width="1" fill="none"></path></g><g stroke-linecap="round" transform="translate(448.9533233642578 303.94500732421875) rotate(0 4.476470947265625 4.06951904296875)"><path d="M2.53 0.4 C3.4 0.33, 5.42 0.9, 6.47 1.1 C7.53 1.29, 8.39 1.03, 8.86 1.58 C9.33 2.12, 9.45 3.36, 9.28 4.37 C9.1 5.38, 8.56 7.09, 7.82 7.64 C7.09 8.2, 5.95 7.9, 4.86 7.7 C3.78 7.49, 2.19 6.8, 1.33 6.43 C0.46 6.05, -0.08 6.05, -0.33 5.46 C-0.57 4.87, -0.73 3.72, -0.13 2.89 C0.47 2.06, 2.55 0.8, 3.28 0.47 C4.01 0.14, 4.38 0.94, 4.25 0.89 M5.31 1.38 C6 0.98, 5.93 -0.72, 6.31 -0.25 C6.68 0.22, 7.3 3.01, 7.56 4.2 C7.82 5.4, 8.24 6.37, 7.89 6.92 C7.53 7.47, 6.43 7.51, 5.44 7.51 C4.44 7.51, 2.51 7.21, 1.92 6.93 C1.33 6.65, 1.97 6.34, 1.92 5.82 C1.87 5.31, 1.41 4.78, 1.6 3.82 C1.78 2.87, 2.72 0.54, 3.04 0.07 C3.37 -0.4, 3.22 1.22, 3.55 0.99 C3.88 0.75, 4.8 -1.47, 5 -1.32" stroke="#1e1e1e" stroke-width="1" fill="none"></path></g><g stroke-linecap="round" transform="translate(445.3551483154297 340.02386474609375) rotate(0 4.476470947265625 4.06951904296875)"><path d="M5.14 -0.52 C5.76 -0.57, 5.8 1.03, 6.46 1.49 C7.11 1.95, 8.73 1.33, 9.08 2.24 C9.42 3.14, 9.13 5.91, 8.53 6.93 C7.93 7.94, 6.48 7.98, 5.47 8.31 C4.46 8.65, 3.14 9.3, 2.47 8.93 C1.8 8.56, 1.88 6.99, 1.47 6.07 C1.06 5.15, 0.15 4.22, -0.01 3.43 C-0.17 2.64, -0.5 1.94, 0.5 1.32 C1.5 0.7, 5.27 0.01, 6 -0.29 C6.72 -0.59, 4.96 -0.6, 4.85 -0.47 M1.63 0.91 C2.52 0.4, 4.43 -0.26, 5.43 -0.31 C6.43 -0.36, 6.97 -0.18, 7.62 0.61 C8.27 1.4, 9.4 3.16, 9.32 4.42 C9.25 5.67, 8.16 7.7, 7.18 8.12 C6.2 8.55, 4.3 7.18, 3.44 6.96 C2.58 6.74, 2.63 7.17, 2.03 6.79 C1.42 6.42, 0.09 5.22, -0.18 4.71 C-0.45 4.2, -0.06 4.25, 0.41 3.75 C0.89 3.25, 2.21 2.38, 2.64 1.71 C3.07 1.04, 2.81 -0.12, 2.98 -0.28" stroke="#1e1e1e" stroke-width="1" fill="none"></path></g><g stroke-linecap="round" transform="translate(451.23851013183594 320.45220947265625) rotate(0 4.476470947265625 4.06951904296875)"><path d="M7.02 0.61 C7.8 1.05, 7.13 1.8, 7.59 2.43 C8.06 3.05, 9.8 3.67, 9.79 4.39 C9.78 5.1, 8.32 5.98, 7.54 6.73 C6.75 7.48, 6.13 8.86, 5.06 8.89 C3.99 8.91, 1.98 7.8, 1.12 6.9 C0.25 6, -0.09 4.19, -0.1 3.49 C-0.11 2.78, 0.54 3.4, 1.05 2.68 C1.57 1.96, 2.07 -0.58, 2.99 -0.81 C3.91 -1.05, 5.75 0.99, 6.6 1.27 C7.44 1.56, 8.08 0.88, 8.07 0.91 M2.51 -0.33 C3.06 -0.54, 3.9 0.32, 4.86 0.65 C5.83 0.98, 7.44 1.19, 8.3 1.66 C9.16 2.13, 10.37 2.51, 10.01 3.46 C9.65 4.41, 7.18 6.66, 6.16 7.39 C5.13 8.11, 4.69 7.86, 3.87 7.82 C3.04 7.78, 1.61 7.64, 1.22 7.13 C0.83 6.61, 1.39 5.54, 1.52 4.73 C1.64 3.93, 1.85 2.9, 1.97 2.3 C2.1 1.7, 2.1 1.34, 2.27 1.11 C2.44 0.87, 2.72 0.8, 3 0.87" stroke="#1e1e1e" stroke-width="1" fill="none"></path></g><g stroke-linecap="round" transform="translate(433.33445739746094 321.53192138671875) rotate(0 4.476470947265625 4.06951904296875)"><path d="M6 1.21 C6.72 1.66, 7.2 1.71, 7.57 2.45 C7.94 3.19, 8.12 4.92, 8.23 5.67 C8.33 6.41, 8.8 6.54, 8.19 6.93 C7.57 7.33, 5.77 7.93, 4.52 8.02 C3.28 8.11, 1.32 8.07, 0.73 7.49 C0.15 6.91, 1.22 5.55, 1.03 4.53 C0.84 3.51, -0.76 2.08, -0.4 1.37 C-0.04 0.67, 2.24 0.57, 3.19 0.3 C4.14 0.04, 4.75 -0.12, 5.31 -0.2 C5.87 -0.29, 6.37 -0.34, 6.55 -0.22 M4.17 -0.02 C5.09 0.18, 5.85 1.45, 6.38 1.71 C6.91 1.98, 6.95 1.04, 7.36 1.58 C7.77 2.12, 9 4.01, 8.83 4.96 C8.66 5.91, 7.2 6.52, 6.33 7.28 C5.45 8.04, 4.47 9.4, 3.58 9.52 C2.69 9.64, 1.53 9.02, 0.99 7.98 C0.44 6.95, 0.13 4.39, 0.3 3.29 C0.46 2.19, 1.3 1.79, 1.97 1.39 C2.65 0.98, 3.88 1.22, 4.34 0.87 C4.8 0.52, 4.86 -0.84, 4.73 -0.7" stroke="#1e1e1e" stroke-width="1" fill="none"></path></g><g stroke-linecap="round" transform="translate(463.99497985839844 332.35577392578125) rotate(0 4.476470947265625 4.06951904296875)"><path d="M5.02 0.79 C6.09 1.2, 8.22 1.9, 8.75 2.45 C9.28 3.01, 8.41 3.39, 8.2 4.11 C7.99 4.83, 8.19 6.11, 7.5 6.77 C6.82 7.44, 5.12 8.13, 4.1 8.1 C3.08 8.06, 2.07 7.19, 1.38 6.55 C0.69 5.92, 0.2 4.95, -0.03 4.26 C-0.26 3.57, -0.44 3.23, 0 2.42 C0.44 1.61, 1.63 -0.22, 2.62 -0.6 C3.61 -0.99, 5.08 -0.28, 5.95 0.11 C6.83 0.49, 7.79 1.67, 7.85 1.69 M6.14 -0.17 C6.96 -0.34, 7.9 -1.17, 8.44 -0.32 C8.98 0.54, 9.37 4.03, 9.36 4.95 C9.34 5.86, 9.11 4.69, 8.34 5.18 C7.57 5.66, 5.87 7.49, 4.74 7.86 C3.61 8.23, 2.14 7.66, 1.57 7.41 C1.01 7.16, 1.56 7.31, 1.35 6.35 C1.13 5.39, 0.14 2.35, 0.29 1.66 C0.44 0.97, 1.54 2.56, 2.25 2.19 C2.95 1.82, 4.26 0, 4.52 -0.55 C4.78 -1.11, 3.79 -1.06, 3.8 -1.12" stroke="#1e1e1e" stroke-width="1" fill="none"></path></g><g stroke-linecap="round" transform="translate(463.5096893310547 308.66802978515625) rotate(0 4.476470947265625 4.06951904296875)"><path d="M4.56 0.44 C5.56 0.15, 6 -0.08, 6.89 0.45 C7.77 0.99, 9.71 2.71, 9.87 3.64 C10.03 4.57, 8.58 5.46, 7.86 6.04 C7.13 6.62, 6.4 6.8, 5.53 7.12 C4.66 7.44, 3.31 8.1, 2.64 7.95 C1.96 7.79, 1.74 6.9, 1.47 6.19 C1.2 5.49, 0.87 4.62, 1.03 3.72 C1.2 2.82, 1.96 1.56, 2.46 0.79 C2.96 0.01, 3.48 -0.94, 4.04 -0.93 C4.6 -0.92, 5.6 0.75, 5.84 0.84 M5.65 0.56 C6.46 0.55, 6.85 0.11, 7.2 1.04 C7.55 1.97, 7.77 5.29, 7.76 6.15 C7.75 7, 7.84 5.84, 7.14 6.19 C6.44 6.54, 4.73 7.94, 3.56 8.25 C2.38 8.57, 0.6 8.61, 0.09 8.07 C-0.42 7.53, 0.44 5.82, 0.49 5.02 C0.54 4.21, -0.26 4.25, 0.41 3.24 C1.08 2.23, 3.5 -0.37, 4.54 -1.04 C5.58 -1.71, 6.52 -1.21, 6.65 -0.78 C6.78 -0.35, 5.62 1.35, 5.34 1.54" stroke="#1e1e1e" stroke-width="1" fill="none"></path></g><g transform="translate(454.6105499267578 308.92681884765625) rotate(0 0.00004999999998744897 0.00004999999998744897)" stroke="none"><path fill="#1e1e1e" d="M 1.57,-1.57 Q 1.57,-1.57 1.77,-1.27 1.98,-0.98 2.09,-0.64 2.20,-0.29 2.19,0.05 2.18,0.41 2.05,0.75 1.93,1.09 1.70,1.37 1.48,1.65 1.18,1.84 0.87,2.04 0.52,2.12 0.18,2.21 -0.17,2.18 -0.53,2.15 -0.86,2.01 -1.19,1.87 -1.46,1.63 -1.73,1.39 -1.90,1.07 -2.08,0.76 -2.15,0.41 -2.21,0.05 -2.17,-0.29 -2.12,-0.65 -1.96,-0.97 -1.80,-1.29 -1.54,-1.54 -1.29,-1.80 -0.97,-1.96 -0.65,-2.12 -0.29,-2.17 0.06,-2.21 0.41,-2.15 0.76,-2.08 1.07,-1.90 1.39,-1.73 1.63,-1.46 1.87,-1.19 2.01,-0.86 2.15,-0.53 2.18,-0.17 2.21,0.18 2.12,0.52 2.03,0.87 1.84,1.18 1.65,1.48 1.37,1.70 1.09,1.93 0.75,2.05 0.41,2.18 0.05,2.19 -0.30,2.20 -0.64,2.09 -0.98,1.98 -1.27,1.77 -1.57,1.56 -1.57,1.57 -1.57,1.57 -1.73,1.35 -1.90,1.14 -2.01,0.90 -2.12,0.66 -2.16,0.39 -2.21,0.13 -2.20,-0.13 -2.18,-0.40 -2.10,-0.65 -2.02,-0.91 -1.88,-1.14 -1.74,-1.36 -1.55,-1.55 -1.36,-1.74 -1.14,-1.88 -0.91,-2.02 -0.65,-2.10 -0.40,-2.18 -0.13,-2.20 0.13,-2.21 0.39,-2.16 0.66,-2.12 0.90,-2.01 1.14,-1.90 1.35,-1.73 1.57,-1.57 1.57,-1.57 L 1.57,-1.57 Z"></path></g><g transform="translate(468.4124298095703 312.39111328125) rotate(0 0.00004999999998744897 0.00004999999998744897)" stroke="none"><path fill="#1e1e1e" d="M 1.57,-1.57 Q 1.57,-1.57 1.77,-1.27 1.98,-0.98 2.09,-0.64 2.20,-0.29 2.19,0.05 2.18,0.41 2.05,0.75 1.93,1.09 1.70,1.37 1.48,1.65 1.18,1.84 0.87,2.04 0.52,2.12 0.18,2.21 -0.17,2.18 -0.53,2.15 -0.86,2.01 -1.19,1.87 -1.46,1.63 -1.73,1.39 -1.90,1.07 -2.08,0.76 -2.15,0.41 -2.21,0.05 -2.17,-0.29 -2.12,-0.65 -1.96,-0.97 -1.80,-1.29 -1.54,-1.54 -1.29,-1.80 -0.97,-1.96 -0.65,-2.12 -0.29,-2.17 0.06,-2.21 0.41,-2.15 0.76,-2.08 1.07,-1.90 1.39,-1.73 1.63,-1.46 1.87,-1.19 2.01,-0.86 2.15,-0.53 2.18,-0.17 2.21,0.18 2.12,0.52 2.03,0.87 1.84,1.18 1.65,1.48 1.37,1.70 1.09,1.93 0.75,2.05 0.41,2.18 0.05,2.19 -0.30,2.20 -0.64,2.09 -0.98,1.98 -1.27,1.77 -1.57,1.56 -1.57,1.57 -1.57,1.57 -1.73,1.35 -1.90,1.14 -2.01,0.90 -2.12,0.66 -2.16,0.39 -2.21,0.13 -2.20,-0.13 -2.18,-0.40 -2.10,-0.65 -2.02,-0.91 -1.88,-1.14 -1.74,-1.36 -1.55,-1.55 -1.36,-1.74 -1.14,-1.88 -0.91,-2.02 -0.65,-2.10 -0.40,-2.18 -0.13,-2.20 0.13,-2.21 0.39,-2.16 0.66,-2.12 0.90,-2.01 1.14,-1.90 1.35,-1.73 1.57,-1.57 1.57,-1.57 L 1.57,-1.57 Z"></path></g><g transform="translate(457.8504180908203 325.05474853515625) rotate(0 0.00004999999998744897 0.00004999999998744897)" stroke="none"><path fill="#1e1e1e" d="M 1.57,-1.57 Q 1.57,-1.57 1.77,-1.27 1.98,-0.98 2.09,-0.64 2.20,-0.29 2.19,0.05 2.18,0.41 2.05,0.75 1.93,1.09 1.70,1.37 1.48,1.65 1.18,1.84 0.87,2.04 0.52,2.12 0.18,2.21 -0.17,2.18 -0.53,2.15 -0.86,2.01 -1.19,1.87 -1.46,1.63 -1.73,1.39 -1.90,1.07 -2.08,0.76 -2.15,0.41 -2.21,0.05 -2.17,-0.29 -2.12,-0.65 -1.96,-0.97 -1.80,-1.29 -1.54,-1.54 -1.29,-1.80 -0.97,-1.96 -0.65,-2.12 -0.29,-2.17 0.06,-2.21 0.41,-2.15 0.76,-2.08 1.07,-1.90 1.39,-1.73 1.63,-1.46 1.87,-1.19 2.01,-0.86 2.15,-0.53 2.18,-0.17 2.21,0.18 2.12,0.52 2.03,0.87 1.84,1.18 1.65,1.48 1.37,1.70 1.09,1.93 0.75,2.05 0.41,2.18 0.05,2.19 -0.30,2.20 -0.64,2.09 -0.98,1.98 -1.27,1.77 -1.57,1.56 -1.57,1.57 -1.57,1.57 -1.73,1.35 -1.90,1.14 -2.01,0.90 -2.12,0.66 -2.16,0.39 -2.21,0.13 -2.20,-0.13 -2.18,-0.40 -2.10,-0.65 -2.02,-0.91 -1.88,-1.14 -1.74,-1.36 -1.55,-1.55 -1.36,-1.74 -1.14,-1.88 -0.91,-2.02 -0.65,-2.10 -0.40,-2.18 -0.13,-2.20 0.13,-2.21 0.39,-2.16 0.66,-2.12 0.90,-2.01 1.14,-1.90 1.35,-1.73 1.57,-1.57 1.57,-1.57 L 1.57,-1.57 Z"></path></g><g transform="translate(451.77149963378906 343.45733642578125) rotate(0 0.00004999999998744897 0.00004999999998744897)" stroke="none"><path fill="#1e1e1e" d="M 1.57,-1.57 Q 1.57,-1.57 1.77,-1.27 1.98,-0.98 2.09,-0.64 2.20,-0.29 2.19,0.05 2.18,0.41 2.05,0.75 1.93,1.09 1.70,1.37 1.48,1.65 1.18,1.84 0.87,2.04 0.52,2.12 0.18,2.21 -0.17,2.18 -0.53,2.15 -0.86,2.01 -1.19,1.87 -1.46,1.63 -1.73,1.39 -1.90,1.07 -2.08,0.76 -2.15,0.41 -2.21,0.05 -2.17,-0.29 -2.12,-0.65 -1.96,-0.97 -1.80,-1.29 -1.54,-1.54 -1.29,-1.80 -0.97,-1.96 -0.65,-2.12 -0.29,-2.17 0.06,-2.21 0.41,-2.15 0.76,-2.08 1.07,-1.90 1.39,-1.73 1.63,-1.46 1.87,-1.19 2.01,-0.86 2.15,-0.53 2.18,-0.17 2.21,0.18 2.12,0.52 2.03,0.87 1.84,1.18 1.65,1.48 1.37,1.70 1.09,1.93 0.75,2.05 0.41,2.18 0.05,2.19 -0.30,2.20 -0.64,2.09 -0.98,1.98 -1.27,1.77 -1.57,1.56 -1.57,1.57 -1.57,1.57 -1.73,1.35 -1.90,1.14 -2.01,0.90 -2.12,0.66 -2.16,0.39 -2.21,0.13 -2.20,-0.13 -2.18,-0.40 -2.10,-0.65 -2.02,-0.91 -1.88,-1.14 -1.74,-1.36 -1.55,-1.55 -1.36,-1.74 -1.14,-1.88 -0.91,-2.02 -0.65,-2.10 -0.40,-2.18 -0.13,-2.20 0.13,-2.21 0.39,-2.16 0.66,-2.12 0.90,-2.01 1.14,-1.90 1.35,-1.73 1.57,-1.57 1.57,-1.57 L 1.57,-1.57 Z"></path></g><g transform="translate(471.4203643798828 336.79205322265625) rotate(0 0.00004999999998744897 0.00004999999998744897)" stroke="none"><path fill="#1e1e1e" d="M 1.57,-1.57 Q 1.57,-1.57 1.77,-1.27 1.98,-0.98 2.09,-0.64 2.20,-0.29 2.19,0.05 2.18,0.41 2.05,0.75 1.93,1.09 1.70,1.37 1.48,1.65 1.18,1.84 0.87,2.04 0.52,2.12 0.18,2.21 -0.17,2.18 -0.53,2.15 -0.86,2.01 -1.19,1.87 -1.46,1.63 -1.73,1.39 -1.90,1.07 -2.08,0.76 -2.15,0.41 -2.21,0.05 -2.17,-0.29 -2.12,-0.65 -1.96,-0.97 -1.80,-1.29 -1.54,-1.54 -1.29,-1.80 -0.97,-1.96 -0.65,-2.12 -0.29,-2.17 0.06,-2.21 0.41,-2.15 0.76,-2.08 1.07,-1.90 1.39,-1.73 1.63,-1.46 1.87,-1.19 2.01,-0.86 2.15,-0.53 2.18,-0.17 2.21,0.18 2.12,0.52 2.03,0.87 1.84,1.18 1.65,1.48 1.37,1.70 1.09,1.93 0.75,2.05 0.41,2.18 0.05,2.19 -0.30,2.20 -0.64,2.09 -0.98,1.98 -1.27,1.77 -1.57,1.56 -1.57,1.57 -1.57,1.57 -1.73,1.35 -1.90,1.14 -2.01,0.90 -2.12,0.66 -2.16,0.39 -2.21,0.13 -2.20,-0.13 -2.18,-0.40 -2.10,-0.65 -2.02,-0.91 -1.88,-1.14 -1.74,-1.36 -1.55,-1.55 -1.36,-1.74 -1.14,-1.88 -0.91,-2.02 -0.65,-2.10 -0.40,-2.18 -0.13,-2.20 0.13,-2.21 0.39,-2.16 0.66,-2.12 0.90,-2.01 1.14,-1.90 1.35,-1.73 1.57,-1.57 1.57,-1.57 L 1.57,-1.57 Z"></path></g><g transform="translate(437.18653869628906 326.0572509765625) rotate(0 0.00004999999998744897 0.00004999999998744897)" stroke="none"><path fill="#1e1e1e" d="M 1.57,-1.57 Q 1.57,-1.57 1.77,-1.27 1.98,-0.98 2.09,-0.64 2.20,-0.29 2.19,0.05 2.18,0.41 2.05,0.75 1.93,1.09 1.70,1.37 1.48,1.65 1.18,1.84 0.87,2.04 0.52,2.12 0.18,2.21 -0.17,2.18 -0.53,2.15 -0.86,2.01 -1.19,1.87 -1.46,1.63 -1.73,1.39 -1.90,1.07 -2.08,0.76 -2.15,0.41 -2.21,0.05 -2.17,-0.29 -2.12,-0.65 -1.96,-0.97 -1.80,-1.29 -1.54,-1.54 -1.29,-1.80 -0.97,-1.96 -0.65,-2.12 -0.29,-2.17 0.06,-2.21 0.41,-2.15 0.76,-2.08 1.07,-1.90 1.39,-1.73 1.63,-1.46 1.87,-1.19 2.01,-0.86 2.15,-0.53 2.18,-0.17 2.21,0.18 2.12,0.52 2.03,0.87 1.84,1.18 1.65,1.48 1.37,1.70 1.09,1.93 0.75,2.05 0.41,2.18 0.05,2.19 -0.30,2.20 -0.64,2.09 -0.98,1.98 -1.27,1.77 -1.57,1.56 -1.57,1.57 -1.57,1.57 -1.73,1.35 -1.90,1.14 -2.01,0.90 -2.12,0.66 -2.16,0.39 -2.21,0.13 -2.20,-0.13 -2.18,-0.40 -2.10,-0.65 -2.02,-0.91 -1.88,-1.14 -1.74,-1.36 -1.55,-1.55 -1.36,-1.74 -1.14,-1.88 -0.91,-2.02 -0.65,-2.10 -0.40,-2.18 -0.13,-2.20 0.13,-2.21 0.39,-2.16 0.66,-2.12 0.90,-2.01 1.14,-1.90 1.35,-1.73 1.57,-1.57 1.57,-1.57 L 1.57,-1.57 Z"></path></g><g transform="translate(437.18653869628906 326.0572509765625) rotate(0 0.00004999999998744897 0.00004999999998744897)" stroke="none"><path fill="#1e1e1e" d="M 1.57,-1.57 Q 1.57,-1.57 1.77,-1.27 1.98,-0.98 2.09,-0.64 2.20,-0.29 2.19,0.05 2.18,0.41 2.05,0.75 1.93,1.09 1.70,1.37 1.48,1.65 1.18,1.84 0.87,2.04 0.52,2.12 0.18,2.21 -0.17,2.18 -0.53,2.15 -0.86,2.01 -1.19,1.87 -1.46,1.63 -1.73,1.39 -1.90,1.07 -2.08,0.76 -2.15,0.41 -2.21,0.05 -2.17,-0.29 -2.12,-0.65 -1.96,-0.97 -1.80,-1.29 -1.54,-1.54 -1.29,-1.80 -0.97,-1.96 -0.65,-2.12 -0.29,-2.17 0.06,-2.21 0.41,-2.15 0.76,-2.08 1.07,-1.90 1.39,-1.73 1.63,-1.46 1.87,-1.19 2.01,-0.86 2.15,-0.53 2.18,-0.17 2.21,0.18 2.12,0.52 2.03,0.87 1.84,1.18 1.65,1.48 1.37,1.70 1.09,1.93 0.75,2.05 0.41,2.18 0.05,2.19 -0.30,2.20 -0.64,2.09 -0.98,1.98 -1.27,1.77 -1.57,1.56 -1.57,1.57 -1.57,1.57 -1.73,1.35 -1.90,1.14 -2.01,0.90 -2.12,0.66 -2.16,0.39 -2.21,0.13 -2.20,-0.13 -2.18,-0.40 -2.10,-0.65 -2.02,-0.91 -1.88,-1.14 -1.74,-1.36 -1.55,-1.55 -1.36,-1.74 -1.14,-1.88 -0.91,-2.02 -0.65,-2.10 -0.40,-2.18 -0.13,-2.20 0.13,-2.21 0.39,-2.16 0.66,-2.12 0.90,-2.01 1.14,-1.90 1.35,-1.73 1.57,-1.57 1.57,-1.57 L 1.57,-1.57 Z"></path></g><g transform="translate(470.33717346191406 338.0322265625) rotate(0 0.00004999999998744897 0.00004999999998744897)" stroke="none"><path fill="#1e1e1e" d="M 1.57,-1.57 Q 1.57,-1.57 1.77,-1.27 1.98,-0.98 2.09,-0.64 2.20,-0.29 2.19,0.05 2.18,0.41 2.05,0.75 1.93,1.09 1.70,1.37 1.48,1.65 1.18,1.84 0.87,2.04 0.52,2.12 0.18,2.21 -0.17,2.18 -0.53,2.15 -0.86,2.01 -1.19,1.87 -1.46,1.63 -1.73,1.39 -1.90,1.07 -2.08,0.76 -2.15,0.41 -2.21,0.05 -2.17,-0.29 -2.12,-0.65 -1.96,-0.97 -1.80,-1.29 -1.54,-1.54 -1.29,-1.80 -0.97,-1.96 -0.65,-2.12 -0.29,-2.17 0.06,-2.21 0.41,-2.15 0.76,-2.08 1.07,-1.90 1.39,-1.73 1.63,-1.46 1.87,-1.19 2.01,-0.86 2.15,-0.53 2.18,-0.17 2.21,0.18 2.12,0.52 2.03,0.87 1.84,1.18 1.65,1.48 1.37,1.70 1.09,1.93 0.75,2.05 0.41,2.18 0.05,2.19 -0.30,2.20 -0.64,2.09 -0.98,1.98 -1.27,1.77 -1.57,1.56 -1.57,1.57 -1.57,1.57 -1.73,1.35 -1.90,1.14 -2.01,0.90 -2.12,0.66 -2.16,0.39 -2.21,0.13 -2.20,-0.13 -2.18,-0.40 -2.10,-0.65 -2.02,-0.91 -1.88,-1.14 -1.74,-1.36 -1.55,-1.55 -1.36,-1.74 -1.14,-1.88 -0.91,-2.02 -0.65,-2.10 -0.40,-2.18 -0.13,-2.20 0.13,-2.21 0.39,-2.16 0.66,-2.12 0.90,-2.01 1.14,-1.90 1.35,-1.73 1.57,-1.57 1.57,-1.57 L 1.57,-1.57 Z"></path></g><g transform="translate(468.61854553222656 337.014404296875) rotate(0 0.00004999999998744897 0.00004999999998744897)" stroke="none"><path fill="#1e1e1e" d="M 1.57,-1.57 Q 1.57,-1.57 1.77,-1.27 1.98,-0.98 2.09,-0.64 2.20,-0.29 2.19,0.05 2.18,0.41 2.05,0.75 1.93,1.09 1.70,1.37 1.48,1.65 1.18,1.84 0.87,2.04 0.52,2.12 0.18,2.21 -0.17,2.18 -0.53,2.15 -0.86,2.01 -1.19,1.87 -1.46,1.63 -1.73,1.39 -1.90,1.07 -2.08,0.76 -2.15,0.41 -2.21,0.05 -2.17,-0.29 -2.12,-0.65 -1.96,-0.97 -1.80,-1.29 -1.54,-1.54 -1.29,-1.80 -0.97,-1.96 -0.65,-2.12 -0.29,-2.17 0.06,-2.21 0.41,-2.15 0.76,-2.08 1.07,-1.90 1.39,-1.73 1.63,-1.46 1.87,-1.19 2.01,-0.86 2.15,-0.53 2.18,-0.17 2.21,0.18 2.12,0.52 2.03,0.87 1.84,1.18 1.65,1.48 1.37,1.70 1.09,1.93 0.75,2.05 0.41,2.18 0.05,2.19 -0.30,2.20 -0.64,2.09 -0.98,1.98 -1.27,1.77 -1.57,1.56 -1.57,1.57 -1.57,1.57 -1.73,1.35 -1.90,1.14 -2.01,0.90 -2.12,0.66 -2.16,0.39 -2.21,0.13 -2.20,-0.13 -2.18,-0.40 -2.10,-0.65 -2.02,-0.91 -1.88,-1.14 -1.74,-1.36 -1.55,-1.55 -1.36,-1.74 -1.14,-1.88 -0.91,-2.02 -0.65,-2.10 -0.40,-2.18 -0.13,-2.20 0.13,-2.21 0.39,-2.16 0.66,-2.12 0.90,-2.01 1.14,-1.90 1.35,-1.73 1.57,-1.57 1.57,-1.57 L 1.57,-1.57 Z"></path></g><g transform="translate(468.82203674316406 336.20050048828125) rotate(0 0.00004999999998744897 0.00004999999998744897)" stroke="none"><path fill="#1e1e1e" d="M 1.57,-1.57 Q 1.57,-1.57 1.77,-1.27 1.98,-0.98 2.09,-0.64 2.20,-0.29 2.19,0.05 2.18,0.41 2.05,0.75 1.93,1.09 1.70,1.37 1.48,1.65 1.18,1.84 0.87,2.04 0.52,2.12 0.18,2.21 -0.17,2.18 -0.53,2.15 -0.86,2.01 -1.19,1.87 -1.46,1.63 -1.73,1.39 -1.90,1.07 -2.08,0.76 -2.15,0.41 -2.21,0.05 -2.17,-0.29 -2.12,-0.65 -1.96,-0.97 -1.80,-1.29 -1.54,-1.54 -1.29,-1.80 -0.97,-1.96 -0.65,-2.12 -0.29,-2.17 0.06,-2.21 0.41,-2.15 0.76,-2.08 1.07,-1.90 1.39,-1.73 1.63,-1.46 1.87,-1.19 2.01,-0.86 2.15,-0.53 2.18,-0.17 2.21,0.18 2.12,0.52 2.03,0.87 1.84,1.18 1.65,1.48 1.37,1.70 1.09,1.93 0.75,2.05 0.41,2.18 0.05,2.19 -0.30,2.20 -0.64,2.09 -0.98,1.98 -1.27,1.77 -1.57,1.56 -1.57,1.57 -1.57,1.57 -1.73,1.35 -1.90,1.14 -2.01,0.90 -2.12,0.66 -2.16,0.39 -2.21,0.13 -2.20,-0.13 -2.18,-0.40 -2.10,-0.65 -2.02,-0.91 -1.88,-1.14 -1.74,-1.36 -1.55,-1.55 -1.36,-1.74 -1.14,-1.88 -0.91,-2.02 -0.65,-2.10 -0.40,-2.18 -0.13,-2.20 0.13,-2.21 0.39,-2.16 0.66,-2.12 0.90,-2.01 1.14,-1.90 1.35,-1.73 1.57,-1.57 1.57,-1.57 L 1.57,-1.57 Z"></path></g><g transform="translate(468.82203674316406 336.20050048828125) rotate(0 0.00004999999998744897 0.00004999999998744897)" stroke="none"><path fill="#1e1e1e" d="M 1.57,-1.57 Q 1.57,-1.57 1.77,-1.27 1.98,-0.98 2.09,-0.64 2.20,-0.29 2.19,0.05 2.18,0.41 2.05,0.75 1.93,1.09 1.70,1.37 1.48,1.65 1.18,1.84 0.87,2.04 0.52,2.12 0.18,2.21 -0.17,2.18 -0.53,2.15 -0.86,2.01 -1.19,1.87 -1.46,1.63 -1.73,1.39 -1.90,1.07 -2.08,0.76 -2.15,0.41 -2.21,0.05 -2.17,-0.29 -2.12,-0.65 -1.96,-0.97 -1.80,-1.29 -1.54,-1.54 -1.29,-1.80 -0.97,-1.96 -0.65,-2.12 -0.29,-2.17 0.06,-2.21 0.41,-2.15 0.76,-2.08 1.07,-1.90 1.39,-1.73 1.63,-1.46 1.87,-1.19 2.01,-0.86 2.15,-0.53 2.18,-0.17 2.21,0.18 2.12,0.52 2.03,0.87 1.84,1.18 1.65,1.48 1.37,1.70 1.09,1.93 0.75,2.05 0.41,2.18 0.05,2.19 -0.30,2.20 -0.64,2.09 -0.98,1.98 -1.27,1.77 -1.57,1.56 -1.57,1.57 -1.57,1.57 -1.73,1.35 -1.90,1.14 -2.01,0.90 -2.12,0.66 -2.16,0.39 -2.21,0.13 -2.20,-0.13 -2.18,-0.40 -2.10,-0.65 -2.02,-0.91 -1.88,-1.14 -1.74,-1.36 -1.55,-1.55 -1.36,-1.74 -1.14,-1.88 -0.91,-2.02 -0.65,-2.10 -0.40,-2.18 -0.13,-2.20 0.13,-2.21 0.39,-2.16 0.66,-2.12 0.90,-2.01 1.14,-1.90 1.35,-1.73 1.57,-1.57 1.57,-1.57 L 1.57,-1.57 Z"></path></g><g transform="translate(469.8394317626953 334.36920166015625) rotate(0 0.00004999999998744897 0.00004999999998744897)" stroke="none"><path fill="#1e1e1e" d="M 1.57,-1.57 Q 1.57,-1.57 1.77,-1.27 1.98,-0.98 2.09,-0.64 2.20,-0.29 2.19,0.05 2.18,0.41 2.05,0.75 1.93,1.09 1.70,1.37 1.48,1.65 1.18,1.84 0.87,2.04 0.52,2.12 0.18,2.21 -0.17,2.18 -0.53,2.15 -0.86,2.01 -1.19,1.87 -1.46,1.63 -1.73,1.39 -1.90,1.07 -2.08,0.76 -2.15,0.41 -2.21,0.05 -2.17,-0.29 -2.12,-0.65 -1.96,-0.97 -1.80,-1.29 -1.54,-1.54 -1.29,-1.80 -0.97,-1.96 -0.65,-2.12 -0.29,-2.17 0.06,-2.21 0.41,-2.15 0.76,-2.08 1.07,-1.90 1.39,-1.73 1.63,-1.46 1.87,-1.19 2.01,-0.86 2.15,-0.53 2.18,-0.17 2.21,0.18 2.12,0.52 2.03,0.87 1.84,1.18 1.65,1.48 1.37,1.70 1.09,1.93 0.75,2.05 0.41,2.18 0.05,2.19 -0.30,2.20 -0.64,2.09 -0.98,1.98 -1.27,1.77 -1.57,1.56 -1.57,1.57 -1.57,1.57 -1.73,1.35 -1.90,1.14 -2.01,0.90 -2.12,0.66 -2.16,0.39 -2.21,0.13 -2.20,-0.13 -2.18,-0.40 -2.10,-0.65 -2.02,-0.91 -1.88,-1.14 -1.74,-1.36 -1.55,-1.55 -1.36,-1.74 -1.14,-1.88 -0.91,-2.02 -0.65,-2.10 -0.40,-2.18 -0.13,-2.20 0.13,-2.21 0.39,-2.16 0.66,-2.12 0.90,-2.01 1.14,-1.90 1.35,-1.73 1.57,-1.57 1.57,-1.57 L 1.57,-1.57 Z"></path></g><g transform="translate(450.7246856689453 345.435302734375) rotate(0 0.00004999999998744897 0.00004999999998744897)" stroke="none"><path fill="#1e1e1e" d="M 1.57,-1.57 Q 1.57,-1.57 1.77,-1.27 1.98,-0.98 2.09,-0.64 2.20,-0.29 2.19,0.05 2.18,0.41 2.05,0.75 1.93,1.09 1.70,1.37 1.48,1.65 1.18,1.84 0.87,2.04 0.52,2.12 0.18,2.21 -0.17,2.18 -0.53,2.15 -0.86,2.01 -1.19,1.87 -1.46,1.63 -1.73,1.39 -1.90,1.07 -2.08,0.76 -2.15,0.41 -2.21,0.05 -2.17,-0.29 -2.12,-0.65 -1.96,-0.97 -1.80,-1.29 -1.54,-1.54 -1.29,-1.80 -0.97,-1.96 -0.65,-2.12 -0.29,-2.17 0.06,-2.21 0.41,-2.15 0.76,-2.08 1.07,-1.90 1.39,-1.73 1.63,-1.46 1.87,-1.19 2.01,-0.86 2.15,-0.53 2.18,-0.17 2.21,0.18 2.12,0.52 2.03,0.87 1.84,1.18 1.65,1.48 1.37,1.70 1.09,1.93 0.75,2.05 0.41,2.18 0.05,2.19 -0.30,2.20 -0.64,2.09 -0.98,1.98 -1.27,1.77 -1.57,1.56 -1.57,1.57 -1.57,1.57 -1.73,1.35 -1.90,1.14 -2.01,0.90 -2.12,0.66 -2.16,0.39 -2.21,0.13 -2.20,-0.13 -2.18,-0.40 -2.10,-0.65 -2.02,-0.91 -1.88,-1.14 -1.74,-1.36 -1.55,-1.55 -1.36,-1.74 -1.14,-1.88 -0.91,-2.02 -0.65,-2.10 -0.40,-2.18 -0.13,-2.20 0.13,-2.21 0.39,-2.16 0.66,-2.12 0.90,-2.01 1.14,-1.90 1.35,-1.73 1.57,-1.57 1.57,-1.57 L 1.57,-1.57 Z"></path></g><g transform="translate(450.7246856689453 345.435302734375) rotate(0 0.00004999999998744897 0.00004999999998744897)" stroke="none"><path fill="#1e1e1e" d="M 1.57,-1.57 Q 1.57,-1.57 1.77,-1.27 1.98,-0.98 2.09,-0.64 2.20,-0.29 2.19,0.05 2.18,0.41 2.05,0.75 1.93,1.09 1.70,1.37 1.48,1.65 1.18,1.84 0.87,2.04 0.52,2.12 0.18,2.21 -0.17,2.18 -0.53,2.15 -0.86,2.01 -1.19,1.87 -1.46,1.63 -1.73,1.39 -1.90,1.07 -2.08,0.76 -2.15,0.41 -2.21,0.05 -2.17,-0.29 -2.12,-0.65 -1.96,-0.97 -1.80,-1.29 -1.54,-1.54 -1.29,-1.80 -0.97,-1.96 -0.65,-2.12 -0.29,-2.17 0.06,-2.21 0.41,-2.15 0.76,-2.08 1.07,-1.90 1.39,-1.73 1.63,-1.46 1.87,-1.19 2.01,-0.86 2.15,-0.53 2.18,-0.17 2.21,0.18 2.12,0.52 2.03,0.87 1.84,1.18 1.65,1.48 1.37,1.70 1.09,1.93 0.75,2.05 0.41,2.18 0.05,2.19 -0.30,2.20 -0.64,2.09 -0.98,1.98 -1.27,1.77 -1.57,1.56 -1.57,1.57 -1.57,1.57 -1.73,1.35 -1.90,1.14 -2.01,0.90 -2.12,0.66 -2.16,0.39 -2.21,0.13 -2.20,-0.13 -2.18,-0.40 -2.10,-0.65 -2.02,-0.91 -1.88,-1.14 -1.74,-1.36 -1.55,-1.55 -1.36,-1.74 -1.14,-1.88 -0.91,-2.02 -0.65,-2.10 -0.40,-2.18 -0.13,-2.20 0.13,-2.21 0.39,-2.16 0.66,-2.12 0.90,-2.01 1.14,-1.90 1.35,-1.73 1.57,-1.57 1.57,-1.57 L 1.57,-1.57 Z"></path></g><g transform="translate(450.3177032470703 345.435302734375) rotate(0 0.00004999999998744897 0.00004999999998744897)" stroke="none"><path fill="#1e1e1e" d="M 1.57,-1.57 Q 1.57,-1.57 1.77,-1.27 1.98,-0.98 2.09,-0.64 2.20,-0.29 2.19,0.05 2.18,0.41 2.05,0.75 1.93,1.09 1.70,1.37 1.48,1.65 1.18,1.84 0.87,2.04 0.52,2.12 0.18,2.21 -0.17,2.18 -0.53,2.15 -0.86,2.01 -1.19,1.87 -1.46,1.63 -1.73,1.39 -1.90,1.07 -2.08,0.76 -2.15,0.41 -2.21,0.05 -2.17,-0.29 -2.12,-0.65 -1.96,-0.97 -1.80,-1.29 -1.54,-1.54 -1.29,-1.80 -0.97,-1.96 -0.65,-2.12 -0.29,-2.17 0.06,-2.21 0.41,-2.15 0.76,-2.08 1.07,-1.90 1.39,-1.73 1.63,-1.46 1.87,-1.19 2.01,-0.86 2.15,-0.53 2.18,-0.17 2.21,0.18 2.12,0.52 2.03,0.87 1.84,1.18 1.65,1.48 1.37,1.70 1.09,1.93 0.75,2.05 0.41,2.18 0.05,2.19 -0.30,2.20 -0.64,2.09 -0.98,1.98 -1.27,1.77 -1.57,1.56 -1.57,1.57 -1.57,1.57 -1.73,1.35 -1.90,1.14 -2.01,0.90 -2.12,0.66 -2.16,0.39 -2.21,0.13 -2.20,-0.13 -2.18,-0.40 -2.10,-0.65 -2.02,-0.91 -1.88,-1.14 -1.74,-1.36 -1.55,-1.55 -1.36,-1.74 -1.14,-1.88 -0.91,-2.02 -0.65,-2.10 -0.40,-2.18 -0.13,-2.20 0.13,-2.21 0.39,-2.16 0.66,-2.12 0.90,-2.01 1.14,-1.90 1.35,-1.73 1.57,-1.57 1.57,-1.57 L 1.57,-1.57 Z"></path></g><g transform="translate(450.7246856689453 346.2491455078125) rotate(0 0.203460693359375 0)" stroke="none"><path fill="#1e1e1e" d="M 2.12,-0.66 Q 2.12,-0.66 2.15,-0.13 2.18,0.40 1.96,0.88 1.74,1.36 1.32,1.69 0.91,2.02 0.38,2.12 -0.13,2.21 -0.64,2.05 -1.14,1.90 -1.52,1.52 -1.90,1.14 -2.05,0.64 -2.21,0.13 -2.12,-0.38 -2.02,-0.91 -1.69,-1.32 -1.36,-1.74 -0.88,-1.96 -0.39,-2.18 0.13,-2.15 0.66,-2.11 1.11,-1.84 1.57,-1.56 1.84,-1.11 L 2.12,-0.66 Z"></path></g><g transform="translate(453.16639709472656 346.45263671875) rotate(0 0.10174560546875 0)" stroke="none"><path fill="#1e1e1e" d="M 2.12,-0.66 Q 2.12,-0.66 2.15,-0.13 2.18,0.40 1.96,0.88 1.74,1.36 1.32,1.69 0.91,2.02 0.38,2.12 -0.13,2.21 -0.64,2.05 -1.14,1.90 -1.52,1.52 -1.90,1.14 -2.05,0.64 -2.21,0.13 -2.12,-0.38 -2.02,-0.91 -1.69,-1.32 -1.36,-1.74 -0.88,-1.96 -0.39,-2.18 0.13,-2.15 0.66,-2.11 1.11,-1.84 1.57,-1.56 1.84,-1.11 L 2.12,-0.66 Z"></path></g><g transform="translate(448.81019592285156 345.0283203125) rotate(0 0.00004999999998744897 0.00004999999998744897)" stroke="none"><path fill="#1e1e1e" d="M 1.57,-1.57 Q 1.57,-1.57 1.77,-1.27 1.98,-0.98 2.09,-0.64 2.20,-0.29 2.19,0.05 2.18,0.41 2.05,0.75 1.93,1.09 1.70,1.37 1.48,1.65 1.18,1.84 0.87,2.04 0.52,2.12 0.18,2.21 -0.17,2.18 -0.53,2.15 -0.86,2.01 -1.19,1.87 -1.46,1.63 -1.73,1.39 -1.90,1.07 -2.08,0.76 -2.15,0.41 -2.21,0.05 -2.17,-0.29 -2.12,-0.65 -1.96,-0.97 -1.80,-1.29 -1.54,-1.54 -1.29,-1.80 -0.97,-1.96 -0.65,-2.12 -0.29,-2.17 0.06,-2.21 0.41,-2.15 0.76,-2.08 1.07,-1.90 1.39,-1.73 1.63,-1.46 1.87,-1.19 2.01,-0.86 2.15,-0.53 2.18,-0.17 2.21,0.18 2.12,0.52 2.03,0.87 1.84,1.18 1.65,1.48 1.37,1.70 1.09,1.93 0.75,2.05 0.41,2.18 0.05,2.19 -0.30,2.20 -0.64,2.09 -0.98,1.98 -1.27,1.77 -1.57,1.56 -1.57,1.57 -1.57,1.57 -1.73,1.35 -1.90,1.14 -2.01,0.90 -2.12,0.66 -2.16,0.39 -2.21,0.13 -2.20,-0.13 -2.18,-0.40 -2.10,-0.65 -2.02,-0.91 -1.88,-1.14 -1.74,-1.36 -1.55,-1.55 -1.36,-1.74 -1.14,-1.88 -0.91,-2.02 -0.65,-2.10 -0.40,-2.18 -0.13,-2.20 0.13,-2.21 0.39,-2.16 0.66,-2.12 0.90,-2.01 1.14,-1.90 1.35,-1.73 1.57,-1.57 1.57,-1.57 L 1.57,-1.57 Z"></path></g><g transform="translate(439.7022247314453 325.1561279296875) rotate(0 0.00004999999998744897 0.00004999999998744897)" stroke="none"><path fill="#1e1e1e" d="M 1.57,-1.57 Q 1.57,-1.57 1.77,-1.27 1.98,-0.98 2.09,-0.64 2.20,-0.29 2.19,0.05 2.18,0.41 2.05,0.75 1.93,1.09 1.70,1.37 1.48,1.65 1.18,1.84 0.87,2.04 0.52,2.12 0.18,2.21 -0.17,2.18 -0.53,2.15 -0.86,2.01 -1.19,1.87 -1.46,1.63 -1.73,1.39 -1.90,1.07 -2.08,0.76 -2.15,0.41 -2.21,0.05 -2.17,-0.29 -2.12,-0.65 -1.96,-0.97 -1.80,-1.29 -1.54,-1.54 -1.29,-1.80 -0.97,-1.96 -0.65,-2.12 -0.29,-2.17 0.06,-2.21 0.41,-2.15 0.76,-2.08 1.07,-1.90 1.39,-1.73 1.63,-1.46 1.87,-1.19 2.01,-0.86 2.15,-0.53 2.18,-0.17 2.21,0.18 2.12,0.52 2.03,0.87 1.84,1.18 1.65,1.48 1.37,1.70 1.09,1.93 0.75,2.05 0.41,2.18 0.05,2.19 -0.30,2.20 -0.64,2.09 -0.98,1.98 -1.27,1.77 -1.57,1.56 -1.57,1.57 -1.57,1.57 -1.73,1.35 -1.90,1.14 -2.01,0.90 -2.12,0.66 -2.16,0.39 -2.21,0.13 -2.20,-0.13 -2.18,-0.40 -2.10,-0.65 -2.02,-0.91 -1.88,-1.14 -1.74,-1.36 -1.55,-1.55 -1.36,-1.74 -1.14,-1.88 -0.91,-2.02 -0.65,-2.10 -0.40,-2.18 -0.13,-2.20 0.13,-2.21 0.39,-2.16 0.66,-2.12 0.90,-2.01 1.14,-1.90 1.35,-1.73 1.57,-1.57 1.57,-1.57 L 1.57,-1.57 Z"></path></g><g transform="translate(439.7022247314453 324.34222412109375) rotate(0 0.00004999999998744897 0.00004999999998744897)" stroke="none"><path fill="#1e1e1e" d="M 1.57,-1.57 Q 1.57,-1.57 1.77,-1.27 1.98,-0.98 2.09,-0.64 2.20,-0.29 2.19,0.05 2.18,0.41 2.05,0.75 1.93,1.09 1.70,1.37 1.48,1.65 1.18,1.84 0.87,2.04 0.52,2.12 0.18,2.21 -0.17,2.18 -0.53,2.15 -0.86,2.01 -1.19,1.87 -1.46,1.63 -1.73,1.39 -1.90,1.07 -2.08,0.76 -2.15,0.41 -2.21,0.05 -2.17,-0.29 -2.12,-0.65 -1.96,-0.97 -1.80,-1.29 -1.54,-1.54 -1.29,-1.80 -0.97,-1.96 -0.65,-2.12 -0.29,-2.17 0.06,-2.21 0.41,-2.15 0.76,-2.08 1.07,-1.90 1.39,-1.73 1.63,-1.46 1.87,-1.19 2.01,-0.86 2.15,-0.53 2.18,-0.17 2.21,0.18 2.12,0.52 2.03,0.87 1.84,1.18 1.65,1.48 1.37,1.70 1.09,1.93 0.75,2.05 0.41,2.18 0.05,2.19 -0.30,2.20 -0.64,2.09 -0.98,1.98 -1.27,1.77 -1.57,1.56 -1.57,1.57 -1.57,1.57 -1.73,1.35 -1.90,1.14 -2.01,0.90 -2.12,0.66 -2.16,0.39 -2.21,0.13 -2.20,-0.13 -2.18,-0.40 -2.10,-0.65 -2.02,-0.91 -1.88,-1.14 -1.74,-1.36 -1.55,-1.55 -1.36,-1.74 -1.14,-1.88 -0.91,-2.02 -0.65,-2.10 -0.40,-2.18 -0.13,-2.20 0.13,-2.21 0.39,-2.16 0.66,-2.12 0.90,-2.01 1.14,-1.90 1.35,-1.73 1.57,-1.57 1.57,-1.57 L 1.57,-1.57 Z"></path></g><g transform="translate(456.39405822753906 321.0150146484375) rotate(0 0.00004999999998744897 0.00004999999998744897)" stroke="none"><path fill="#1e1e1e" d="M 1.57,-1.57 Q 1.57,-1.57 1.77,-1.27 1.98,-0.98 2.09,-0.64 2.20,-0.29 2.19,0.05 2.18,0.41 2.05,0.75 1.93,1.09 1.70,1.37 1.48,1.65 1.18,1.84 0.87,2.04 0.52,2.12 0.18,2.21 -0.17,2.18 -0.53,2.15 -0.86,2.01 -1.19,1.87 -1.46,1.63 -1.73,1.39 -1.90,1.07 -2.08,0.76 -2.15,0.41 -2.21,0.05 -2.17,-0.29 -2.12,-0.65 -1.96,-0.97 -1.80,-1.29 -1.54,-1.54 -1.29,-1.80 -0.97,-1.96 -0.65,-2.12 -0.29,-2.17 0.06,-2.21 0.41,-2.15 0.76,-2.08 1.07,-1.90 1.39,-1.73 1.63,-1.46 1.87,-1.19 2.01,-0.86 2.15,-0.53 2.18,-0.17 2.21,0.18 2.12,0.52 2.03,0.87 1.84,1.18 1.65,1.48 1.37,1.70 1.09,1.93 0.75,2.05 0.41,2.18 0.05,2.19 -0.30,2.20 -0.64,2.09 -0.98,1.98 -1.27,1.77 -1.57,1.56 -1.57,1.57 -1.57,1.57 -1.73,1.35 -1.90,1.14 -2.01,0.90 -2.12,0.66 -2.16,0.39 -2.21,0.13 -2.20,-0.13 -2.18,-0.40 -2.10,-0.65 -2.02,-0.91 -1.88,-1.14 -1.74,-1.36 -1.55,-1.55 -1.36,-1.74 -1.14,-1.88 -0.91,-2.02 -0.65,-2.10 -0.40,-2.18 -0.13,-2.20 0.13,-2.21 0.39,-2.16 0.66,-2.12 0.90,-2.01 1.14,-1.90 1.35,-1.73 1.57,-1.57 1.57,-1.57 L 1.57,-1.57 Z"></path></g><g transform="translate(455.18556213378906 323.5399169921875) rotate(0 0 0.10174560546875)" stroke="none"><path fill="#1e1e1e" d="M 2.12,-0.66 Q 2.12,-0.66 2.15,-0.13 2.18,0.40 1.96,0.88 1.74,1.36 1.32,1.69 0.91,2.02 0.38,2.12 -0.13,2.21 -0.64,2.05 -1.14,1.90 -1.52,1.52 -1.90,1.14 -2.05,0.64 -2.21,0.13 -2.12,-0.38 -2.02,-0.91 -1.69,-1.32 -1.36,-1.74 -0.88,-1.96 -0.39,-2.18 0.13,-2.15 0.66,-2.11 1.11,-1.84 1.57,-1.56 1.84,-1.11 L 2.12,-0.66 Z"></path></g><g transform="translate(455.18556213378906 324.150390625) rotate(0 -0.101715087890625 0.305206298828125)" stroke="none"><path fill="#1e1e1e" d="M 2.12,-0.66 Q 2.12,-0.66 2.15,-0.13 2.18,0.40 1.96,0.88 1.74,1.36 1.32,1.69 0.91,2.02 0.38,2.12 -0.13,2.21 -0.64,2.05 -1.14,1.90 -1.52,1.52 -1.90,1.14 -2.05,0.64 -2.21,0.13 -2.12,-0.38 -2.02,-0.91 -1.69,-1.32 -1.36,-1.74 -0.88,-1.96 -0.39,-2.18 0.13,-2.15 0.66,-2.11 1.11,-1.84 1.57,-1.56 1.84,-1.11 L 2.12,-0.66 Z"></path></g><g transform="translate(454.9821319580078 324.96429443359375) rotate(0 0.101715087890625 0.305206298828125)" stroke="none"><path fill="#1e1e1e" d="M 2.12,-0.66 Q 2.12,-0.66 2.15,-0.13 2.18,0.40 1.96,0.88 1.74,1.36 1.32,1.69 0.91,2.02 0.38,2.12 -0.13,2.21 -0.64,2.05 -1.14,1.90 -1.52,1.52 -1.90,1.14 -2.05,0.64 -2.21,0.13 -2.12,-0.38 -2.02,-0.91 -1.69,-1.32 -1.36,-1.74 -0.88,-1.96 -0.39,-2.18 0.13,-2.15 0.66,-2.11 1.11,-1.84 1.57,-1.56 1.84,-1.11 L 2.12,-0.66 Z"></path></g><g transform="translate(455.38905334472656 325.57470703125) rotate(0 0.2034912109375 0)" stroke="none"><path fill="#1e1e1e" d="M 2.12,-0.66 Q 2.12,-0.66 2.15,-0.13 2.18,0.40 1.96,0.88 1.74,1.36 1.32,1.69 0.91,2.02 0.38,2.12 -0.13,2.21 -0.64,2.05 -1.14,1.90 -1.52,1.52 -1.90,1.14 -2.05,0.64 -2.21,0.13 -2.12,-0.38 -2.02,-0.91 -1.69,-1.32 -1.36,-1.74 -0.88,-1.96 -0.39,-2.18 0.13,-2.15 0.66,-2.11 1.11,-1.84 1.57,-1.56 1.84,-1.11 L 2.12,-0.66 Z"></path></g><g transform="translate(458.11744689941406 325.07220458984375) rotate(0 0.00004999999998744897 0.00004999999998744897)" stroke="none"><path fill="#1e1e1e" d="M 1.57,-1.57 Q 1.57,-1.57 1.77,-1.27 1.98,-0.98 2.09,-0.64 2.20,-0.29 2.19,0.05 2.18,0.41 2.05,0.75 1.93,1.09 1.70,1.37 1.48,1.65 1.18,1.84 0.87,2.04 0.52,2.12 0.18,2.21 -0.17,2.18 -0.53,2.15 -0.86,2.01 -1.19,1.87 -1.46,1.63 -1.73,1.39 -1.90,1.07 -2.08,0.76 -2.15,0.41 -2.21,0.05 -2.17,-0.29 -2.12,-0.65 -1.96,-0.97 -1.80,-1.29 -1.54,-1.54 -1.29,-1.80 -0.97,-1.96 -0.65,-2.12 -0.29,-2.17 0.06,-2.21 0.41,-2.15 0.76,-2.08 1.07,-1.90 1.39,-1.73 1.63,-1.46 1.87,-1.19 2.01,-0.86 2.15,-0.53 2.18,-0.17 2.21,0.18 2.12,0.52 2.03,0.87 1.84,1.18 1.65,1.48 1.37,1.70 1.09,1.93 0.75,2.05 0.41,2.18 0.05,2.19 -0.30,2.20 -0.64,2.09 -0.98,1.98 -1.27,1.77 -1.57,1.56 -1.57,1.57 -1.57,1.57 -1.73,1.35 -1.90,1.14 -2.01,0.90 -2.12,0.66 -2.16,0.39 -2.21,0.13 -2.20,-0.13 -2.18,-0.40 -2.10,-0.65 -2.02,-0.91 -1.88,-1.14 -1.74,-1.36 -1.55,-1.55 -1.36,-1.74 -1.14,-1.88 -0.91,-2.02 -0.65,-2.10 -0.40,-2.18 -0.13,-2.20 0.13,-2.21 0.39,-2.16 0.66,-2.12 0.90,-2.01 1.14,-1.90 1.35,-1.73 1.57,-1.57 1.57,-1.57 L 1.57,-1.57 Z"></path></g><g transform="translate(473.8258819580078 311.8929443359375) rotate(0 0.00004999999998744897 0.00004999999998744897)" stroke="none"><path fill="#1e1e1e" d="M 1.57,-1.57 Q 1.57,-1.57 1.77,-1.27 1.98,-0.98 2.09,-0.64 2.20,-0.29 2.19,0.05 2.18,0.41 2.05,0.75 1.93,1.09 1.70,1.37 1.48,1.65 1.18,1.84 0.87,2.04 0.52,2.12 0.18,2.21 -0.17,2.18 -0.53,2.15 -0.86,2.01 -1.19,1.87 -1.46,1.63 -1.73,1.39 -1.90,1.07 -2.08,0.76 -2.15,0.41 -2.21,0.05 -2.17,-0.29 -2.12,-0.65 -1.96,-0.97 -1.80,-1.29 -1.54,-1.54 -1.29,-1.80 -0.97,-1.96 -0.65,-2.12 -0.29,-2.17 0.06,-2.21 0.41,-2.15 0.76,-2.08 1.07,-1.90 1.39,-1.73 1.63,-1.46 1.87,-1.19 2.01,-0.86 2.15,-0.53 2.18,-0.17 2.21,0.18 2.12,0.52 2.03,0.87 1.84,1.18 1.65,1.48 1.37,1.70 1.09,1.93 0.75,2.05 0.41,2.18 0.05,2.19 -0.30,2.20 -0.64,2.09 -0.98,1.98 -1.27,1.77 -1.57,1.56 -1.57,1.57 -1.57,1.57 -1.73,1.35 -1.90,1.14 -2.01,0.90 -2.12,0.66 -2.16,0.39 -2.21,0.13 -2.20,-0.13 -2.18,-0.40 -2.10,-0.65 -2.02,-0.91 -1.88,-1.14 -1.74,-1.36 -1.55,-1.55 -1.36,-1.74 -1.14,-1.88 -0.91,-2.02 -0.65,-2.10 -0.40,-2.18 -0.13,-2.20 0.13,-2.21 0.39,-2.16 0.66,-2.12 0.90,-2.01 1.14,-1.90 1.35,-1.73 1.57,-1.57 1.57,-1.57 L 1.57,-1.57 Z"></path></g><g transform="translate(471.3009796142578 312.80242919921875) rotate(0 -0.305206298828125 0.203460693359375)" stroke="none"><path fill="#1e1e1e" d="M 2.12,-0.66 Q 2.12,-0.66 2.15,-0.13 2.18,0.40 1.96,0.88 1.74,1.36 1.32,1.69 0.91,2.02 0.38,2.12 -0.13,2.21 -0.64,2.05 -1.14,1.90 -1.52,1.52 -1.90,1.14 -2.05,0.64 -2.21,0.13 -2.12,-0.38 -2.02,-0.91 -1.69,-1.32 -1.36,-1.74 -0.88,-1.96 -0.39,-2.18 0.13,-2.15 0.66,-2.11 1.11,-1.84 1.57,-1.56 1.84,-1.11 L 2.12,-0.66 Z"></path></g><g transform="translate(470.28358459472656 313.2093505859375) rotate(0 -0.305206298828125 0.10174560546875)" stroke="none"><path fill="#1e1e1e" d="M 2.12,-0.66 Q 2.12,-0.66 2.15,-0.13 2.18,0.40 1.96,0.88 1.74,1.36 1.32,1.69 0.91,2.02 0.38,2.12 -0.13,2.21 -0.64,2.05 -1.14,1.90 -1.52,1.52 -1.90,1.14 -2.05,0.64 -2.21,0.13 -2.12,-0.38 -2.02,-0.91 -1.69,-1.32 -1.36,-1.74 -0.88,-1.96 -0.39,-2.18 0.13,-2.15 0.66,-2.11 1.11,-1.84 1.57,-1.56 1.84,-1.11 L 2.12,-0.66 Z"></path></g><g transform="translate(468.0453643798828 313.6163330078125) rotate(0 0.00004999999998744897 0.00004999999998744897)" stroke="none"><path fill="#1e1e1e" d="M 1.57,-1.57 Q 1.57,-1.57 1.77,-1.27 1.98,-0.98 2.09,-0.64 2.20,-0.29 2.19,0.05 2.18,0.41 2.05,0.75 1.93,1.09 1.70,1.37 1.48,1.65 1.18,1.84 0.87,2.04 0.52,2.12 0.18,2.21 -0.17,2.18 -0.53,2.15 -0.86,2.01 -1.19,1.87 -1.46,1.63 -1.73,1.39 -1.90,1.07 -2.08,0.76 -2.15,0.41 -2.21,0.05 -2.17,-0.29 -2.12,-0.65 -1.96,-0.97 -1.80,-1.29 -1.54,-1.54 -1.29,-1.80 -0.97,-1.96 -0.65,-2.12 -0.29,-2.17 0.06,-2.21 0.41,-2.15 0.76,-2.08 1.07,-1.90 1.39,-1.73 1.63,-1.46 1.87,-1.19 2.01,-0.86 2.15,-0.53 2.18,-0.17 2.21,0.18 2.12,0.52 2.03,0.87 1.84,1.18 1.65,1.48 1.37,1.70 1.09,1.93 0.75,2.05 0.41,2.18 0.05,2.19 -0.30,2.20 -0.64,2.09 -0.98,1.98 -1.27,1.77 -1.57,1.56 -1.57,1.57 -1.57,1.57 -1.73,1.35 -1.90,1.14 -2.01,0.90 -2.12,0.66 -2.16,0.39 -2.21,0.13 -2.20,-0.13 -2.18,-0.40 -2.10,-0.65 -2.02,-0.91 -1.88,-1.14 -1.74,-1.36 -1.55,-1.55 -1.36,-1.74 -1.14,-1.88 -0.91,-2.02 -0.65,-2.10 -0.40,-2.18 -0.13,-2.20 0.13,-2.21 0.39,-2.16 0.66,-2.12 0.90,-2.01 1.14,-1.90 1.35,-1.73 1.57,-1.57 1.57,-1.57 L 1.57,-1.57 Z"></path></g><g transform="translate(469.8766632080078 310.97113037109375) rotate(0 0.10174560546875 -0.10174560546875)" stroke="none"><path fill="#1e1e1e" d="M 2.12,-0.66 Q 2.12,-0.66 2.15,-0.13 2.18,0.40 1.96,0.88 1.74,1.36 1.32,1.69 0.91,2.02 0.38,2.12 -0.13,2.21 -0.64,2.05 -1.14,1.90 -1.52,1.52 -1.90,1.14 -2.05,0.64 -2.21,0.13 -2.12,-0.38 -2.02,-0.91 -1.69,-1.32 -1.36,-1.74 -0.88,-1.96 -0.39,-2.18 0.13,-2.15 0.66,-2.11 1.11,-1.84 1.57,-1.56 1.84,-1.11 L 2.12,-0.66 Z"></path></g><g transform="translate(451.04371643066406 307.726318359375) rotate(0 0.00004999999998744897 0.00004999999998744897)" stroke="none"><path fill="#1e1e1e" d="M 1.57,-1.57 Q 1.57,-1.57 1.77,-1.27 1.98,-0.98 2.09,-0.64 2.20,-0.29 2.19,0.05 2.18,0.41 2.05,0.75 1.93,1.09 1.70,1.37 1.48,1.65 1.18,1.84 0.87,2.04 0.52,2.12 0.18,2.21 -0.17,2.18 -0.53,2.15 -0.86,2.01 -1.19,1.87 -1.46,1.63 -1.73,1.39 -1.90,1.07 -2.08,0.76 -2.15,0.41 -2.21,0.05 -2.17,-0.29 -2.12,-0.65 -1.96,-0.97 -1.80,-1.29 -1.54,-1.54 -1.29,-1.80 -0.97,-1.96 -0.65,-2.12 -0.29,-2.17 0.06,-2.21 0.41,-2.15 0.76,-2.08 1.07,-1.90 1.39,-1.73 1.63,-1.46 1.87,-1.19 2.01,-0.86 2.15,-0.53 2.18,-0.17 2.21,0.18 2.12,0.52 2.03,0.87 1.84,1.18 1.65,1.48 1.37,1.70 1.09,1.93 0.75,2.05 0.41,2.18 0.05,2.19 -0.30,2.20 -0.64,2.09 -0.98,1.98 -1.27,1.77 -1.57,1.56 -1.57,1.57 -1.57,1.57 -1.73,1.35 -1.90,1.14 -2.01,0.90 -2.12,0.66 -2.16,0.39 -2.21,0.13 -2.20,-0.13 -2.18,-0.40 -2.10,-0.65 -2.02,-0.91 -1.88,-1.14 -1.74,-1.36 -1.55,-1.55 -1.36,-1.74 -1.14,-1.88 -0.91,-2.02 -0.65,-2.10 -0.40,-2.18 -0.13,-2.20 0.13,-2.21 0.39,-2.16 0.66,-2.12 0.90,-2.01 1.14,-1.90 1.35,-1.73 1.57,-1.57 1.57,-1.57 L 1.57,-1.57 Z"></path></g><g transform="translate(451.04371643066406 307.726318359375) rotate(0 0.00004999999998744897 0.00004999999998744897)" stroke="none"><path fill="#1e1e1e" d="M 1.57,-1.57 Q 1.57,-1.57 1.77,-1.27 1.98,-0.98 2.09,-0.64 2.20,-0.29 2.19,0.05 2.18,0.41 2.05,0.75 1.93,1.09 1.70,1.37 1.48,1.65 1.18,1.84 0.87,2.04 0.52,2.12 0.18,2.21 -0.17,2.18 -0.53,2.15 -0.86,2.01 -1.19,1.87 -1.46,1.63 -1.73,1.39 -1.90,1.07 -2.08,0.76 -2.15,0.41 -2.21,0.05 -2.17,-0.29 -2.12,-0.65 -1.96,-0.97 -1.80,-1.29 -1.54,-1.54 -1.29,-1.80 -0.97,-1.96 -0.65,-2.12 -0.29,-2.17 0.06,-2.21 0.41,-2.15 0.76,-2.08 1.07,-1.90 1.39,-1.73 1.63,-1.46 1.87,-1.19 2.01,-0.86 2.15,-0.53 2.18,-0.17 2.21,0.18 2.12,0.52 2.03,0.87 1.84,1.18 1.65,1.48 1.37,1.70 1.09,1.93 0.75,2.05 0.41,2.18 0.05,2.19 -0.30,2.20 -0.64,2.09 -0.98,1.98 -1.27,1.77 -1.57,1.56 -1.57,1.57 -1.57,1.57 -1.73,1.35 -1.90,1.14 -2.01,0.90 -2.12,0.66 -2.16,0.39 -2.21,0.13 -2.20,-0.13 -2.18,-0.40 -2.10,-0.65 -2.02,-0.91 -1.88,-1.14 -1.74,-1.36 -1.55,-1.55 -1.36,-1.74 -1.14,-1.88 -0.91,-2.02 -0.65,-2.10 -0.40,-2.18 -0.13,-2.20 0.13,-2.21 0.39,-2.16 0.66,-2.12 0.90,-2.01 1.14,-1.90 1.35,-1.73 1.57,-1.57 1.57,-1.57 L 1.57,-1.57 Z"></path></g><g transform="translate(452.26454162597656 309.150634765625) rotate(0 0.00004999999998744897 0.00004999999998744897)" stroke="none"><path fill="#1e1e1e" d="M 1.57,-1.57 Q 1.57,-1.57 1.77,-1.27 1.98,-0.98 2.09,-0.64 2.20,-0.29 2.19,0.05 2.18,0.41 2.05,0.75 1.93,1.09 1.70,1.37 1.48,1.65 1.18,1.84 0.87,2.04 0.52,2.12 0.18,2.21 -0.17,2.18 -0.53,2.15 -0.86,2.01 -1.19,1.87 -1.46,1.63 -1.73,1.39 -1.90,1.07 -2.08,0.76 -2.15,0.41 -2.21,0.05 -2.17,-0.29 -2.12,-0.65 -1.96,-0.97 -1.80,-1.29 -1.54,-1.54 -1.29,-1.80 -0.97,-1.96 -0.65,-2.12 -0.29,-2.17 0.06,-2.21 0.41,-2.15 0.76,-2.08 1.07,-1.90 1.39,-1.73 1.63,-1.46 1.87,-1.19 2.01,-0.86 2.15,-0.53 2.18,-0.17 2.21,0.18 2.12,0.52 2.03,0.87 1.84,1.18 1.65,1.48 1.37,1.70 1.09,1.93 0.75,2.05 0.41,2.18 0.05,2.19 -0.30,2.20 -0.64,2.09 -0.98,1.98 -1.27,1.77 -1.57,1.56 -1.57,1.57 -1.57,1.57 -1.73,1.35 -1.90,1.14 -2.01,0.90 -2.12,0.66 -2.16,0.39 -2.21,0.13 -2.20,-0.13 -2.18,-0.40 -2.10,-0.65 -2.02,-0.91 -1.88,-1.14 -1.74,-1.36 -1.55,-1.55 -1.36,-1.74 -1.14,-1.88 -0.91,-2.02 -0.65,-2.10 -0.40,-2.18 -0.13,-2.20 0.13,-2.21 0.39,-2.16 0.66,-2.12 0.90,-2.01 1.14,-1.90 1.35,-1.73 1.57,-1.57 1.57,-1.57 L 1.57,-1.57 Z"></path></g><g transform="translate(452.26454162597656 309.150634765625) rotate(0 0.00004999999998744897 0.00004999999998744897)" stroke="none"><path fill="#1e1e1e" d="M 1.57,-1.57 Q 1.57,-1.57 1.77,-1.27 1.98,-0.98 2.09,-0.64 2.20,-0.29 2.19,0.05 2.18,0.41 2.05,0.75 1.93,1.09 1.70,1.37 1.48,1.65 1.18,1.84 0.87,2.04 0.52,2.12 0.18,2.21 -0.17,2.18 -0.53,2.15 -0.86,2.01 -1.19,1.87 -1.46,1.63 -1.73,1.39 -1.90,1.07 -2.08,0.76 -2.15,0.41 -2.21,0.05 -2.17,-0.29 -2.12,-0.65 -1.96,-0.97 -1.80,-1.29 -1.54,-1.54 -1.29,-1.80 -0.97,-1.96 -0.65,-2.12 -0.29,-2.17 0.06,-2.21 0.41,-2.15 0.76,-2.08 1.07,-1.90 1.39,-1.73 1.63,-1.46 1.87,-1.19 2.01,-0.86 2.15,-0.53 2.18,-0.17 2.21,0.18 2.12,0.52 2.03,0.87 1.84,1.18 1.65,1.48 1.37,1.70 1.09,1.93 0.75,2.05 0.41,2.18 0.05,2.19 -0.30,2.20 -0.64,2.09 -0.98,1.98 -1.27,1.77 -1.57,1.56 -1.57,1.57 -1.57,1.57 -1.73,1.35 -1.90,1.14 -2.01,0.90 -2.12,0.66 -2.16,0.39 -2.21,0.13 -2.20,-0.13 -2.18,-0.40 -2.10,-0.65 -2.02,-0.91 -1.88,-1.14 -1.74,-1.36 -1.55,-1.55 -1.36,-1.74 -1.14,-1.88 -0.91,-2.02 -0.65,-2.10 -0.40,-2.18 -0.13,-2.20 0.13,-2.21 0.39,-2.16 0.66,-2.12 0.90,-2.01 1.14,-1.90 1.35,-1.73 1.57,-1.57 1.57,-1.57 L 1.57,-1.57 Z"></path></g><g transform="translate(454.3825225830078 307.834228515625) rotate(0 0.00004999999998744897 0.00004999999998744897)" stroke="none"><path fill="#1e1e1e" d="M 1.57,-1.57 Q 1.57,-1.57 1.77,-1.27 1.98,-0.98 2.09,-0.64 2.20,-0.29 2.19,0.05 2.18,0.41 2.05,0.75 1.93,1.09 1.70,1.37 1.48,1.65 1.18,1.84 0.87,2.04 0.52,2.12 0.18,2.21 -0.17,2.18 -0.53,2.15 -0.86,2.01 -1.19,1.87 -1.46,1.63 -1.73,1.39 -1.90,1.07 -2.08,0.76 -2.15,0.41 -2.21,0.05 -2.17,-0.29 -2.12,-0.65 -1.96,-0.97 -1.80,-1.29 -1.54,-1.54 -1.29,-1.80 -0.97,-1.96 -0.65,-2.12 -0.29,-2.17 0.06,-2.21 0.41,-2.15 0.76,-2.08 1.07,-1.90 1.39,-1.73 1.63,-1.46 1.87,-1.19 2.01,-0.86 2.15,-0.53 2.18,-0.17 2.21,0.18 2.12,0.52 2.03,0.87 1.84,1.18 1.65,1.48 1.37,1.70 1.09,1.93 0.75,2.05 0.41,2.18 0.05,2.19 -0.30,2.20 -0.64,2.09 -0.98,1.98 -1.27,1.77 -1.57,1.56 -1.57,1.57 -1.57,1.57 -1.73,1.35 -1.90,1.14 -2.01,0.90 -2.12,0.66 -2.16,0.39 -2.21,0.13 -2.20,-0.13 -2.18,-0.40 -2.10,-0.65 -2.02,-0.91 -1.88,-1.14 -1.74,-1.36 -1.55,-1.55 -1.36,-1.74 -1.14,-1.88 -0.91,-2.02 -0.65,-2.10 -0.40,-2.18 -0.13,-2.20 0.13,-2.21 0.39,-2.16 0.66,-2.12 0.90,-2.01 1.14,-1.90 1.35,-1.73 1.57,-1.57 1.57,-1.57 L 1.57,-1.57 Z"></path></g><g transform="translate(454.3825225830078 307.834228515625) rotate(0 0.00004999999998744897 0.00004999999998744897)" stroke="none"><path fill="#1e1e1e" d="M 1.57,-1.57 Q 1.57,-1.57 1.77,-1.27 1.98,-0.98 2.09,-0.64 2.20,-0.29 2.19,0.05 2.18,0.41 2.05,0.75 1.93,1.09 1.70,1.37 1.48,1.65 1.18,1.84 0.87,2.04 0.52,2.12 0.18,2.21 -0.17,2.18 -0.53,2.15 -0.86,2.01 -1.19,1.87 -1.46,1.63 -1.73,1.39 -1.90,1.07 -2.08,0.76 -2.15,0.41 -2.21,0.05 -2.17,-0.29 -2.12,-0.65 -1.96,-0.97 -1.80,-1.29 -1.54,-1.54 -1.29,-1.80 -0.97,-1.96 -0.65,-2.12 -0.29,-2.17 0.06,-2.21 0.41,-2.15 0.76,-2.08 1.07,-1.90 1.39,-1.73 1.63,-1.46 1.87,-1.19 2.01,-0.86 2.15,-0.53 2.18,-0.17 2.21,0.18 2.12,0.52 2.03,0.87 1.84,1.18 1.65,1.48 1.37,1.70 1.09,1.93 0.75,2.05 0.41,2.18 0.05,2.19 -0.30,2.20 -0.64,2.09 -0.98,1.98 -1.27,1.77 -1.57,1.56 -1.57,1.57 -1.57,1.57 -1.73,1.35 -1.90,1.14 -2.01,0.90 -2.12,0.66 -2.16,0.39 -2.21,0.13 -2.20,-0.13 -2.18,-0.40 -2.10,-0.65 -2.02,-0.91 -1.88,-1.14 -1.74,-1.36 -1.55,-1.55 -1.36,-1.74 -1.14,-1.88 -0.91,-2.02 -0.65,-2.10 -0.40,-2.18 -0.13,-2.20 0.13,-2.21 0.39,-2.16 0.66,-2.12 0.90,-2.01 1.14,-1.90 1.35,-1.73 1.57,-1.57 1.57,-1.57 L 1.57,-1.57 Z"></path></g><g transform="translate(452.1813507080078 307.39019775390625) rotate(0 0.00004999999998744897 0.00004999999998744897)" stroke="none"><path fill="#1e1e1e" d="M 1.57,-1.57 Q 1.57,-1.57 1.77,-1.27 1.98,-0.98 2.09,-0.64 2.20,-0.29 2.19,0.05 2.18,0.41 2.05,0.75 1.93,1.09 1.70,1.37 1.48,1.65 1.18,1.84 0.87,2.04 0.52,2.12 0.18,2.21 -0.17,2.18 -0.53,2.15 -0.86,2.01 -1.19,1.87 -1.46,1.63 -1.73,1.39 -1.90,1.07 -2.08,0.76 -2.15,0.41 -2.21,0.05 -2.17,-0.29 -2.12,-0.65 -1.96,-0.97 -1.80,-1.29 -1.54,-1.54 -1.29,-1.80 -0.97,-1.96 -0.65,-2.12 -0.29,-2.17 0.06,-2.21 0.41,-2.15 0.76,-2.08 1.07,-1.90 1.39,-1.73 1.63,-1.46 1.87,-1.19 2.01,-0.86 2.15,-0.53 2.18,-0.17 2.21,0.18 2.12,0.52 2.03,0.87 1.84,1.18 1.65,1.48 1.37,1.70 1.09,1.93 0.75,2.05 0.41,2.18 0.05,2.19 -0.30,2.20 -0.64,2.09 -0.98,1.98 -1.27,1.77 -1.57,1.56 -1.57,1.57 -1.57,1.57 -1.73,1.35 -1.90,1.14 -2.01,0.90 -2.12,0.66 -2.16,0.39 -2.21,0.13 -2.20,-0.13 -2.18,-0.40 -2.10,-0.65 -2.02,-0.91 -1.88,-1.14 -1.74,-1.36 -1.55,-1.55 -1.36,-1.74 -1.14,-1.88 -0.91,-2.02 -0.65,-2.10 -0.40,-2.18 -0.13,-2.20 0.13,-2.21 0.39,-2.16 0.66,-2.12 0.90,-2.01 1.14,-1.90 1.35,-1.73 1.57,-1.57 1.57,-1.57 L 1.57,-1.57 Z"></path></g><g stroke-linecap="round" transform="translate(428.67835998535156 207.17022705078125) rotate(0 21.75360107421875 28.842742919921875)"><path d="M10.88 0 M10.88 0 C16.94 -0.64, 23.98 0.52, 32.63 0 M10.88 0 C19.74 0.8, 27.37 -0.79, 32.63 0 M32.63 0 C39.38 0.67, 42.92 5.51, 43.51 10.88 M32.63 0 C39.48 -1.76, 44.71 5.85, 43.51 10.88 M43.51 10.88 C45.35 21.03, 42.82 30.4, 43.51 46.81 M43.51 10.88 C42.75 19.61, 44.24 29.59, 43.51 46.81 M43.51 46.81 C44.1 54.09, 40.62 59.08, 32.63 57.69 M43.51 46.81 C45.72 52.2, 41.07 58.51, 32.63 57.69 M32.63 57.69 C22.96 57.33, 17.19 56.6, 10.88 57.69 M32.63 57.69 C26.88 58.34, 20.86 57.02, 10.88 57.69 M10.88 57.69 C3.37 57.81, -0.95 54.7, 0 46.81 M10.88 57.69 C2.37 59.64, -0.13 52.34, 0 46.81 M0 46.81 C0.07 40.03, -1.63 31.16, 0 10.88 M0 46.81 C0.19 34.08, 1.03 19.87, 0 10.88 M0 10.88 C1.6 3.78, 1.83 -1.87, 10.88 0 M0 10.88 C0.19 4.36, 5.31 1.96, 10.88 0" stroke="#1e1e1e" stroke-width="1" fill="none"></path></g><g transform="translate(432.56715393066406 207.76895141601562) rotate(0 19.0250244140625 -13.83636474609375)" stroke="none"><path fill="#1e1e1e" d="M -1.22,-2.20 Q -1.22,-2.20 -0.72,-2.53 -0.21,-2.86 0.54,-3.72 1.31,-4.58 2.03,-5.43 2.75,-6.27 3.40,-7.13 4.05,-7.99 4.77,-9.00 5.50,-10.01 6.03,-11.00 6.57,-11.99 7.15,-13.09 7.72,-14.20 8.24,-15.43 8.75,-16.66 9.25,-17.98 9.74,-19.31 9.83,-20.39 9.92,-21.48 9.56,-22.83 9.20,-24.18 8.93,-25.23 8.66,-26.29 8.53,-27.38 8.41,-28.46 8.80,-30.04 9.20,-31.62 9.76,-32.70 10.31,-33.78 11.19,-34.59 12.06,-35.39 13.24,-35.96 14.43,-36.52 15.61,-36.57 16.79,-36.62 17.87,-36.73 18.94,-36.83 20.09,-36.83 21.25,-36.84 22.48,-36.94 23.71,-37.05 24.80,-37.06 25.89,-37.06 27.25,-36.75 28.61,-36.44 29.75,-35.42 30.90,-34.41 31.13,-33.22 31.37,-32.03 31.48,-30.95 31.59,-29.87 31.88,-28.62 32.17,-27.38 32.38,-25.94 32.58,-24.51 32.76,-23.45 32.93,-22.40 32.97,-21.30 33.01,-20.20 33.11,-19.00 33.22,-17.81 33.32,-16.75 33.42,-15.69 33.86,-14.66 34.30,-13.63 34.97,-12.67 35.64,-11.71 36.24,-10.73 36.83,-9.74 37.31,-8.70 37.78,-7.66 38.33,-6.71 38.88,-5.76 39.87,-4.67 40.86,-3.58 41.20,-2.25 41.55,-0.92 41.67,0.31 41.78,1.55 41.77,2.85 41.75,4.14 41.87,4.76 41.99,5.39 41.90,6.02 41.81,6.66 41.53,7.23 41.24,7.80 40.79,8.25 40.34,8.70 39.77,8.98 39.19,9.26 38.56,9.35 37.93,9.43 37.30,9.31 36.68,9.19 36.12,8.87 35.57,8.56 35.14,8.08 34.72,7.60 34.47,7.02 34.22,6.43 34.17,5.79 34.12,5.16 34.27,4.54 34.43,3.92 34.77,3.38 35.12,2.85 35.61,2.45 36.11,2.05 36.71,1.83 37.31,1.61 37.95,1.60 38.59,1.58 39.20,1.77 39.81,1.96 40.32,2.33 40.84,2.71 41.21,3.23 41.58,3.75 41.77,4.36 41.95,4.97 41.93,5.60 41.92,6.24 41.69,6.84 41.47,7.44 41.07,7.93 40.67,8.43 40.13,8.77 39.59,9.12 38.97,9.27 38.35,9.42 37.72,9.37 37.08,9.31 36.50,9.06 35.91,8.81 35.44,8.38 34.97,7.95 34.65,7.39 34.34,6.84 34.34,6.84 34.34,6.84 34.19,4.16 34.04,1.49 33.66,0.22 33.27,-1.03 32.50,-1.91 31.73,-2.79 31.28,-3.77 30.83,-4.75 30.17,-5.69 29.51,-6.63 28.93,-7.73 28.34,-8.83 27.61,-9.77 26.87,-10.71 26.50,-11.71 26.13,-12.71 25.91,-13.99 25.69,-15.28 25.53,-16.51 25.37,-17.73 25.27,-18.95 25.17,-20.16 25.13,-21.27 25.09,-22.38 24.87,-23.76 24.65,-25.15 24.51,-26.34 24.37,-27.53 24.14,-29.24 23.90,-30.95 24.90,-30.11 25.89,-29.26 24.81,-29.27 23.72,-29.27 22.53,-29.18 21.34,-29.08 20.17,-29.24 19.00,-29.39 17.30,-29.38 15.60,-29.37 15.85,-28.32 16.10,-27.27 16.59,-25.84 17.08,-24.40 17.20,-22.81 17.32,-21.22 17.17,-20.14 17.02,-19.06 16.67,-17.75 16.32,-16.44 15.96,-15.38 15.60,-14.31 15.10,-13.18 14.60,-12.04 13.85,-10.75 13.10,-9.46 12.52,-8.40 11.93,-7.34 11.16,-6.42 10.38,-5.51 9.45,-4.59 8.51,-3.68 7.68,-2.70 6.84,-1.72 5.90,-0.92 4.95,-0.11 3.64,0.79 2.32,1.69 1.77,1.95 1.22,2.20 0.94,2.31 0.66,2.43 0.36,2.47 0.05,2.51 -0.24,2.48 -0.54,2.46 -0.83,2.35 -1.11,2.25 -1.37,2.09 -1.62,1.92 -1.83,1.70 -2.03,1.48 -2.18,1.21 -2.33,0.94 -2.41,0.65 -2.49,0.36 -2.50,0.05 -2.50,-0.24 -2.44,-0.54 -2.37,-0.83 -2.24,-1.10 -2.10,-1.38 -1.91,-1.61 -1.71,-1.84 -1.46,-2.02 -1.22,-2.20 -1.22,-2.20 L -1.22,-2.20 Z"></path></g><g transform="translate(431.9860382080078 209.4781494140625) rotate(0 21.3880615234375 29.91998291015625)" stroke="none"><path fill="#1e1e1e" d="M 2.52,0.37 Q 2.52,0.37 2.32,1.73 2.12,3.09 1.98,4.84 1.84,6.59 1.62,7.96 1.39,9.34 1.46,10.63 1.52,11.91 1.38,12.98 1.25,14.05 1.29,15.27 1.34,16.49 1.28,17.66 1.21,18.83 1.23,20.14 1.24,21.46 1.27,22.57 1.31,23.68 1.33,24.75 1.35,25.82 1.38,26.96 1.40,28.10 1.42,29.35 1.44,30.61 1.45,31.92 1.46,33.23 1.45,34.43 1.44,35.64 1.65,37.24 1.85,38.85 2.09,40.10 2.32,41.36 2.56,42.74 2.79,44.13 2.91,45.20 3.03,46.27 3.17,47.45 3.31,48.62 3.48,49.76 3.65,50.89 3.87,52.00 4.09,53.10 5.09,53.87 6.08,54.65 7.76,56.05 9.45,57.46 9.38,59.04 9.32,60.62 8.80,58.98 8.29,57.33 7.08,56.75 5.88,56.18 6.84,55.67 7.81,55.17 9.07,55.05 10.34,54.93 11.53,54.84 12.72,54.74 14.06,54.54 15.40,54.33 16.75,54.23 18.09,54.14 19.31,54.04 20.52,53.93 21.72,53.93 22.92,53.93 24.02,54.02 25.11,54.12 26.20,54.26 27.28,54.40 28.47,54.62 29.66,54.85 30.78,54.95 31.89,55.05 33.08,55.16 34.28,55.26 35.79,54.97 37.29,54.67 38.51,54.25 39.72,53.82 40.80,53.43 41.87,53.03 41.52,51.87 41.16,50.71 41.16,49.12 41.17,47.53 41.18,46.25 41.19,44.97 41.06,43.64 40.94,42.31 40.83,40.97 40.73,39.63 40.55,38.34 40.37,37.05 40.07,35.75 39.77,34.44 39.52,33.33 39.27,32.21 39.06,30.61 38.86,29.00 38.73,27.70 38.61,26.39 38.49,25.09 38.37,23.80 38.37,22.33 38.37,20.85 38.37,19.57 38.37,18.30 38.46,16.80 38.56,15.30 38.71,13.99 38.86,12.68 39.04,11.20 39.22,9.73 39.17,8.64 39.12,7.54 38.74,6.27 38.36,4.99 38.12,4.42 37.89,3.84 37.85,3.21 37.81,2.59 37.97,1.98 38.13,1.38 38.48,0.85 38.82,0.33 39.32,-0.04 39.81,-0.42 40.40,-0.63 41.00,-0.84 41.62,-0.84 42.25,-0.85 42.84,-0.65 43.44,-0.46 43.94,-0.08 44.44,0.28 44.80,0.79 45.16,1.31 45.33,1.91 45.50,2.51 45.47,3.14 45.45,3.76 45.22,4.35 44.99,4.93 44.59,5.41 44.19,5.89 43.66,6.22 43.12,6.55 42.51,6.69 41.90,6.83 41.28,6.77 40.66,6.71 40.09,6.45 39.52,6.19 39.06,5.77 38.60,5.34 38.30,4.79 38.00,4.24 37.89,3.62 37.79,3.00 37.88,2.38 37.98,1.77 38.27,1.21 38.56,0.65 39.01,0.22 39.46,-0.21 40.02,-0.47 40.59,-0.74 41.21,-0.82 41.83,-0.89 42.44,-0.76 43.06,-0.63 43.60,-0.31 44.14,-0.00 44.55,0.47 44.96,0.94 44.96,0.94 44.96,0.94 45.72,2.88 46.49,4.82 46.66,6.54 46.83,8.26 46.81,9.37 46.79,10.47 46.58,11.73 46.38,13.00 46.26,14.18 46.15,15.36 46.05,16.54 45.96,17.72 45.96,19.02 45.95,20.33 45.95,21.49 45.95,22.66 45.96,23.75 45.97,24.84 46.16,26.38 46.35,27.93 46.46,29.08 46.57,30.24 46.89,31.59 47.21,32.95 47.44,34.03 47.66,35.11 47.90,36.56 48.13,38.01 48.23,39.09 48.32,40.16 48.42,41.50 48.53,42.83 48.66,43.89 48.80,44.96 48.81,46.25 48.82,47.54 48.84,49.14 48.85,50.75 48.64,52.09 48.44,53.44 48.29,54.68 48.13,55.93 47.65,56.98 47.16,58.03 46.28,58.91 45.39,59.80 44.10,60.37 42.82,60.94 41.61,61.22 40.41,61.49 39.36,61.80 38.32,62.11 37.02,62.52 35.72,62.92 34.49,62.94 33.26,62.96 32.15,62.83 31.04,62.70 29.77,62.61 28.51,62.53 27.04,62.19 25.57,61.86 24.25,61.77 22.92,61.67 21.58,61.66 20.24,61.65 19.12,61.77 18.00,61.89 16.49,62.03 14.98,62.16 13.85,62.32 12.71,62.47 11.39,62.59 10.08,62.71 8.93,62.90 7.78,63.09 6.65,63.26 5.52,63.43 4.17,62.81 2.83,62.19 2.39,60.24 1.95,58.29 2.41,57.31 2.88,56.33 2.98,57.55 3.07,58.78 4.15,60.33 5.23,61.87 4.17,61.76 3.11,61.65 2.08,61.18 1.06,60.70 0.15,59.91 -0.75,59.12 -1.50,58.15 -2.25,57.18 -2.64,56.16 -3.04,55.14 -3.39,53.52 -3.75,51.91 -4.00,50.56 -4.25,49.22 -4.30,47.93 -4.36,46.64 -4.58,45.10 -4.80,43.56 -4.99,42.17 -5.19,40.78 -5.47,39.31 -5.75,37.84 -5.83,36.12 -5.90,34.39 -5.91,33.33 -5.91,32.26 -5.90,31.17 -5.88,30.07 -5.86,28.74 -5.84,27.40 -5.81,26.17 -5.78,24.94 -5.75,23.73 -5.72,22.52 -5.70,21.43 -5.68,20.34 -5.63,19.12 -5.59,17.91 -5.46,16.54 -5.34,15.17 -5.25,14.00 -5.16,12.82 -4.91,11.76 -4.67,10.70 -4.33,9.13 -4.00,7.56 -3.59,6.03 -3.19,4.51 -3.06,3.42 -2.93,2.33 -2.73,0.98 -2.52,-0.37 -2.44,-0.67 -2.36,-0.97 -2.21,-1.24 -2.06,-1.50 -1.85,-1.73 -1.64,-1.95 -1.38,-2.12 -1.12,-2.29 -0.83,-2.39 -0.54,-2.49 -0.23,-2.52 0.07,-2.55 0.37,-2.50 0.67,-2.46 0.96,-2.34 1.24,-2.22 1.49,-2.04 1.74,-1.86 1.94,-1.62 2.14,-1.39 2.27,-1.11 2.41,-0.84 2.47,-0.53 2.54,-0.23 2.53,0.06 2.52,0.37 2.52,0.37 L 2.52,0.37 Z"></path></g><g transform="translate(444.88868713378906 172.57110595703125) rotate(0 7.833831787109375 -2.686798095703125)" stroke="none"><path fill="#1e1e1e" d="M -1.76,1.76 Q -1.76,1.76 -2.14,1.44 -2.53,1.11 -3.13,0.04 -3.74,-1.02 -3.89,-2.11 -4.04,-3.20 -3.67,-4.85 -3.30,-6.49 -2.23,-7.18 -1.16,-7.88 -0.02,-8.19 1.12,-8.49 2.28,-8.56 3.43,-8.63 4.51,-8.79 5.58,-8.94 6.70,-8.98 7.83,-9.03 9.04,-9.06 10.25,-9.10 11.43,-9.13 12.61,-9.15 13.73,-9.17 14.84,-9.20 16.11,-8.99 17.38,-8.78 18.53,-8.04 19.68,-7.31 20.10,-6.23 20.52,-5.16 19.75,-2.28 18.99,0.59 18.65,1.08 18.30,1.57 17.82,1.92 17.34,2.28 16.77,2.46 16.20,2.64 15.60,2.63 15.00,2.62 14.44,2.41 13.87,2.21 13.40,1.84 12.93,1.47 12.61,0.97 12.28,0.47 12.13,-0.10 11.98,-0.68 12.02,-1.28 12.07,-1.87 12.30,-2.42 12.53,-2.98 12.92,-3.42 13.32,-3.87 13.84,-4.17 14.36,-4.47 14.94,-4.59 15.53,-4.71 16.12,-4.63 16.72,-4.56 17.25,-4.30 17.79,-4.04 18.22,-3.62 18.65,-3.20 18.92,-2.66 19.19,-2.13 19.27,-1.54 19.36,-0.95 19.25,-0.36 19.15,0.22 18.86,0.75 18.57,1.27 18.12,1.67 17.68,2.08 17.13,2.32 16.59,2.56 15.99,2.61 15.40,2.67 14.81,2.53 14.23,2.39 13.72,2.07 13.22,1.75 12.84,1.29 12.46,0.83 12.25,0.27 12.04,-0.28 12.02,-0.88 11.99,-1.48 12.16,-2.05 12.34,-2.63 12.33,-2.63 12.33,-2.63 12.83,-3.22 13.33,-3.82 14.41,-2.89 15.49,-1.96 14.34,-1.97 13.20,-1.98 11.93,-2.01 10.67,-2.03 9.51,-2.07 8.35,-2.10 7.24,-2.29 6.13,-2.48 4.78,-2.29 3.43,-2.10 2.28,-2.31 1.12,-2.52 1.44,-2.14 1.76,-1.76 1.94,-1.52 2.13,-1.28 2.25,-1.01 2.37,-0.74 2.43,-0.44 2.48,-0.15 2.46,0.14 2.45,0.44 2.36,0.73 2.27,1.02 2.11,1.27 1.96,1.53 1.74,1.74 1.53,1.96 1.27,2.11 1.02,2.27 0.73,2.36 0.44,2.45 0.14,2.46 -0.15,2.48 -0.44,2.43 -0.74,2.37 -1.01,2.25 -1.28,2.13 -1.52,1.94 -1.76,1.76 -1.76,1.76 L -1.76,1.76 Z"></path></g><g transform="translate(438.9833526611328 225.4451904296875) rotate(0 12.319984436035156 10)"><text x="0" y="0" font-family="Virgil, Segoe UI Emoji" font-size="16px" fill="#1e1e1e" text-anchor="start" style="white-space: pre;" direction="ltr" dominant-baseline="text-before-edge">pop</text></g><g stroke-linecap="round" transform="translate(610.7014312744141 72.61776733398438) rotate(0 26.16156005859375 15)"><path d="M7.5 0 M7.5 0 C13.85 -0.51, 23.97 -1.11, 44.82 0 M7.5 0 C16.92 -0.54, 25.54 -0.15, 44.82 0 M44.82 0 C47.91 1.98, 51.88 3.36, 52.32 7.5 M44.82 0 C50.17 -0.8, 50.03 2.17, 52.32 7.5 M52.32 7.5 C52.25 11.06, 52.25 15.03, 52.32 22.5 M52.32 7.5 C52.52 12.58, 52.5 16.5, 52.32 22.5 M52.32 22.5 C53.28 25.65, 50.61 29.77, 44.82 30 M52.32 22.5 C54.12 29.22, 48.11 28.22, 44.82 30 M44.82 30 C32.32 29.2, 15.64 28.92, 7.5 30 M44.82 30 C31.78 30.05, 19.83 29.08, 7.5 30 M7.5 30 C3.7 30.31, -0.69 27.93, 0 22.5 M7.5 30 C1.71 31.58, 1.89 25.48, 0 22.5 M0 22.5 C1.16 18.69, -0.91 16.03, 0 7.5 M0 22.5 C-0.59 18.23, 0 14.92, 0 7.5 M0 7.5 C1.79 3.09, 1.28 0.78, 7.5 0 M0 7.5 C0.5 3.76, 0.3 2.22, 7.5 0" stroke="#1e1e1e" stroke-width="1" fill="none"></path></g><g transform="translate(629.4469985961914 77.61776733398438) rotate(0 7.415992736816406 10)"><text x="7.415992736816406" y="0" font-family="Virgil, Segoe UI Emoji" font-size="16px" fill="#1e1e1e" text-anchor="middle" style="white-space: pre;" direction="ltr" dominant-baseline="text-before-edge">A1</text></g><g stroke-linecap="round" transform="translate(359.06459045410156 241.71026611328125) rotate(0 26.16156005859375 15)"><path d="M7.5 0 M7.5 0 C19.08 2.1, 29.99 0.81, 44.82 0 M7.5 0 C20.37 0.63, 34.23 -0.89, 44.82 0 M44.82 0 C48.27 1.76, 50.79 2.02, 52.32 7.5 M44.82 0 C52.1 -0.82, 52.07 1.36, 52.32 7.5 M52.32 7.5 C52.02 13.21, 53.33 16.91, 52.32 22.5 M52.32 7.5 C52.51 12.64, 52.86 18.91, 52.32 22.5 M52.32 22.5 C50.57 26.22, 48.65 30.08, 44.82 30 M52.32 22.5 C53.97 27.08, 48.29 30.92, 44.82 30 M44.82 30 C33.34 29.17, 25.04 30.91, 7.5 30 M44.82 30 C30.68 29.99, 16.31 28.82, 7.5 30 M7.5 30 C4.43 28.12, -1.66 28.61, 0 22.5 M7.5 30 C2.29 28.9, 0.12 25.76, 0 22.5 M0 22.5 C-1.41 18.1, 0.95 10.97, 0 7.5 M0 22.5 C-0.15 18.18, -0.57 13.99, 0 7.5 M0 7.5 C0.62 2.57, 0.55 -0.19, 7.5 0 M0 7.5 C-1.68 2.93, 0.53 -0.92, 7.5 0" stroke="#1e1e1e" stroke-width="1" fill="none"></path></g><g transform="translate(373.7141571044922 246.71026611328125) rotate(0 11.511993408203125 10)"><text x="11.511993408203125" y="0" font-family="Virgil, Segoe UI Emoji" font-size="16px" fill="#1e1e1e" text-anchor="middle" style="white-space: pre;" direction="ltr" dominant-baseline="text-before-edge">B2</text></g><g stroke-linecap="round" transform="translate(360.1087188720703 350.9068603515625) rotate(0 26.16156005859375 15)"><path d="M7.5 0 M7.5 0 C20.36 0.85, 30.37 0.68, 44.82 0 M7.5 0 C17.51 -1.06, 29.9 -1.05, 44.82 0 M44.82 0 C49.34 1.98, 51.61 2.28, 52.32 7.5 M44.82 0 C48.68 1, 52.65 0.49, 52.32 7.5 M52.32 7.5 C51.48 12.57, 52.62 15.33, 52.32 22.5 M52.32 7.5 C52.89 11.67, 51.79 16.71, 52.32 22.5 M52.32 22.5 C52.4 28.93, 49.46 28.67, 44.82 30 M52.32 22.5 C53.24 26.67, 49.48 29.96, 44.82 30 M44.82 30 C37.58 31.77, 29.1 28.77, 7.5 30 M44.82 30 C31.21 31.17, 18.57 29.38, 7.5 30 M7.5 30 C3.61 29.82, -0.96 27.6, 0 22.5 M7.5 30 C0.76 31.16, 2.08 25.45, 0 22.5 M0 22.5 C-1.11 19.29, -0.88 15.57, 0 7.5 M0 22.5 C0.49 18.69, -0.01 13.68, 0 7.5 M0 7.5 C-0.19 1.04, 2.88 -1.71, 7.5 0 M0 7.5 C-0.92 1.9, 0.81 -2.17, 7.5 0" stroke="#1e1e1e" stroke-width="1" fill="none"></path></g><g transform="translate(375.6702880859375 355.9068603515625) rotate(0 10.599990844726562 10)"><text x="10.599990844726562" y="0" font-family="Virgil, Segoe UI Emoji" font-size="16px" fill="#1e1e1e" text-anchor="middle" style="white-space: pre;" direction="ltr" dominant-baseline="text-before-edge">C3</text></g><g stroke-linecap="round" transform="translate(593.9553985595703 271.0688171386719) rotate(0 39.498260498046875 15)"><path d="M7.5 0 M7.5 0 C22.96 1.48, 35.71 -0.29, 71.5 0 M7.5 0 C21.38 -1.21, 37.22 0.56, 71.5 0 M71.5 0 C77.38 -0.87, 80.75 3.01, 79 7.5 M71.5 0 C74.43 1.72, 78.68 0.66, 79 7.5 M79 7.5 C77.39 10.99, 78.69 15.19, 79 22.5 M79 7.5 C79.2 13.49, 78.41 17.89, 79 22.5 M79 22.5 C80.65 26.05, 74.51 29.85, 71.5 30 M79 22.5 C77.26 29.46, 75.5 31.19, 71.5 30 M71.5 30 C50.36 30.85, 32.79 28.42, 7.5 30 M71.5 30 C47.48 29.96, 24.29 29.67, 7.5 30 M7.5 30 C2.46 29.53, -0.56 26.74, 0 22.5 M7.5 30 C3.08 32.18, -0.57 25.62, 0 22.5 M0 22.5 C-1.14 17.96, -0.27 14.24, 0 7.5 M0 22.5 C0.02 18.29, 0.15 14.37, 0 7.5 M0 7.5 C-1.74 0.67, 4.23 1, 7.5 0 M0 7.5 C2.03 1.44, 0.97 0.59, 7.5 0" stroke="#1e1e1e" stroke-width="1" fill="none"></path></g><g transform="translate(619.0776672363281 276.0688171386719) rotate(0 14.375991821289062 10)"><text x="14.375991821289062" y="0" font-family="Virgil, Segoe UI Emoji" font-size="16px" fill="#1e1e1e" text-anchor="middle" style="white-space: pre;" direction="ltr" dominant-baseline="text-before-edge">Pay</text></g><g stroke-linecap="round" transform="translate(358.00013732910156 61.71063232421875) rotate(0 23.071746826171875 25)"><path d="M11.54 0 M11.54 0 C20.68 -0.69, 25.25 0.11, 34.61 0 M11.54 0 C19.03 -0.3, 27.63 -0.01, 34.61 0 M34.61 0 C43.04 0.26, 44.74 2.07, 46.14 11.54 M34.61 0 C43.45 0.1, 47.58 4.75, 46.14 11.54 M46.14 11.54 C46.14 18.8, 45.81 26.75, 46.14 38.46 M46.14 11.54 C46.72 21.55, 47.19 30.58, 46.14 38.46 M46.14 38.46 C44.37 44.96, 43.95 49.66, 34.61 50 M46.14 38.46 C46.59 47.89, 44.29 49.5, 34.61 50 M34.61 50 C28.21 49.63, 21.12 51.32, 11.54 50 M34.61 50 C26.14 49.67, 16.61 49.62, 11.54 50 M11.54 50 C2.78 48.12, -1.83 44.74, 0 38.46 M11.54 50 C3.95 48.46, -0.83 47.91, 0 38.46 M0 38.46 C-1.21 32.61, -0.81 26.02, 0 11.54 M0 38.46 C-0.52 31.84, 0.64 24.74, 0 11.54 M0 11.54 C0.38 5.62, 2.16 0.03, 11.54 0 M0 11.54 C-0.81 4.49, 4.48 0.25, 11.54 0" stroke="#1e1e1e" stroke-width="1" fill="none"></path></g><g transform="translate(365.70389556884766 66.71063232421875) rotate(0 15.367988586425781 20)"><text x="15.367988586425781" y="0" font-family="Virgil, Segoe UI Emoji" font-size="16px" fill="#1e1e1e" text-anchor="middle" style="white-space: pre;" direction="ltr" dominant-baseline="text-before-edge">.001</text><text x="15.367988586425781" y="20" font-family="Virgil, Segoe UI Emoji" font-size="16px" fill="#1e1e1e" text-anchor="middle" style="white-space: pre;" direction="ltr" dominant-baseline="text-before-edge">Eth</text></g><g stroke-linecap="round" transform="translate(359.54563903808594 169.16151428222656) rotate(0 25 35)"><path d="M12.5 0 M12.5 0 C17.78 -1.37, 23.69 0.14, 37.5 0 M12.5 0 C22.16 -0.89, 30.06 -0.4, 37.5 0 M37.5 0 C46.39 0.55, 50.21 4.05, 50 12.5 M37.5 0 C44.8 1.69, 49.77 3.78, 50 12.5 M50 12.5 C49.46 25.63, 48.87 42.87, 50 57.5 M50 12.5 C49.67 26.75, 50.57 41.99, 50 57.5 M50 57.5 C51.12 65.3, 46.12 71.04, 37.5 70 M50 57.5 C52.01 66.22, 47.62 69.38, 37.5 70 M37.5 70 C28.7 69.37, 22.52 71.03, 12.5 70 M37.5 70 C31.06 69.54, 24.4 70.06, 12.5 70 M12.5 70 C5.43 70.08, 1.59 63.89, 0 57.5 M12.5 70 C3.98 71.21, -0.9 66.11, 0 57.5 M0 57.5 C1.04 48.77, -0.17 37.4, 0 12.5 M0 57.5 C-0.18 46.75, -0.4 36.36, 0 12.5 M0 12.5 C0.97 5.73, 5.37 -1.54, 12.5 0 M0 12.5 C0.15 4.1, 3.92 1.81, 12.5 0" stroke="#1e1e1e" stroke-width="1" fill="none"></path></g><g transform="translate(365.64965057373047 184.16151428222656) rotate(0 18.89598846435547 20)"><text x="18.89598846435547" y="0" font-family="Virgil, Segoe UI Emoji" font-size="16px" fill="#1e1e1e" text-anchor="middle" style="white-space: pre;" direction="ltr" dominant-baseline="text-before-edge">.002</text><text x="18.89598846435547" y="20" font-family="Virgil, Segoe UI Emoji" font-size="16px" fill="#1e1e1e" text-anchor="middle" style="white-space: pre;" direction="ltr" dominant-baseline="text-before-edge">Eth</text></g><g stroke-linecap="round" transform="translate(360.4676971435547 295.4529571533203) rotate(0 23.071746826171875 25)"><path d="M11.54 0 M11.54 0 C17.35 1.17, 22.21 0.53, 34.61 0 M11.54 0 C20.15 0.28, 29.75 0.1, 34.61 0 M34.61 0 C42.18 -0.9, 47.61 3.65, 46.14 11.54 M34.61 0 C41.92 0.62, 47.14 1.98, 46.14 11.54 M46.14 11.54 C46.88 18.99, 44.62 26.59, 46.14 38.46 M46.14 11.54 C46.92 20.08, 45.85 27.65, 46.14 38.46 M46.14 38.46 C47.18 47.91, 42.63 51.55, 34.61 50 M46.14 38.46 C45.52 46.66, 42.87 51.25, 34.61 50 M34.61 50 C29.44 49.02, 24.05 50.64, 11.54 50 M34.61 50 C28.43 50.43, 22.3 50.59, 11.54 50 M11.54 50 C1.9 49.84, 1.05 45.37, 0 38.46 M11.54 50 C4.12 48.49, 0.81 46.38, 0 38.46 M0 38.46 C0.75 27.44, -0.58 19.02, 0 11.54 M0 38.46 C-0.09 31.56, 0.85 24.28, 0 11.54 M0 11.54 C-1.54 3.97, 3.79 -0.22, 11.54 0 M0 11.54 C1.81 2.75, 4.69 -1.35, 11.54 0" stroke="#1e1e1e" stroke-width="1" fill="none"></path></g><g transform="translate(368.1714553833008 300.4529571533203) rotate(0 15.367988586425781 20)"><text x="15.367988586425781" y="0" font-family="Virgil, Segoe UI Emoji" font-size="16px" fill="#1e1e1e" text-anchor="middle" style="white-space: pre;" direction="ltr" dominant-baseline="text-before-edge">.001</text><text x="15.367988586425781" y="20" font-family="Virgil, Segoe UI Emoji" font-size="16px" fill="#1e1e1e" text-anchor="middle" style="white-space: pre;" direction="ltr" dominant-baseline="text-before-edge">Eth</text></g><g transform="translate(15.057235717773438 30.692230224609375) rotate(0 138.60791015625 40)"><text x="0" y="0" font-family="Virgil, Segoe UI Emoji" font-size="16px" fill="#1e1e1e" text-anchor="start" style="white-space: pre;" direction="ltr" dominant-baseline="text-before-edge">Account for inventory of snacks</text><text x="0" y="20" font-family="Virgil, Segoe UI Emoji" font-size="16px" fill="#1e1e1e" text-anchor="start" style="white-space: pre;" direction="ltr" dominant-baseline="text-before-edge">Prices for each snack</text><text x="0" y="40" font-family="Virgil, Segoe UI Emoji" font-size="16px" fill="#1e1e1e" text-anchor="start" style="white-space: pre;" direction="ltr" dominant-baseline="text-before-edge">mapping(string =&gt; Snacks) inventory;</text><text x="0" y="60" font-family="Virgil, Segoe UI Emoji" font-size="16px" fill="#1e1e1e" text-anchor="start" style="white-space: pre;" direction="ltr" dominant-baseline="text-before-edge"></text></g><g transform="translate(10 120.3336181640625) rotate(0 128.055908203125 90)"><text x="0" y="0" font-family="Virgil, Segoe UI Emoji" font-size="16px" fill="#1e1e1e" text-anchor="start" style="white-space: pre;" direction="ltr" dominant-baseline="text-before-edge">Properties of snacks</text><text x="0" y="20" font-family="Virgil, Segoe UI Emoji" font-size="16px" fill="#1e1e1e" text-anchor="start" style="white-space: pre;" direction="ltr" dominant-baseline="text-before-edge">Struct Snacks {qty; price;}</text><text x="0" y="40" font-family="Virgil, Segoe UI Emoji" font-size="16px" fill="#1e1e1e" text-anchor="start" style="white-space: pre;" direction="ltr" dominant-baseline="text-before-edge"></text><text x="0" y="60" font-family="Virgil, Segoe UI Emoji" font-size="16px" fill="#1e1e1e" text-anchor="start" style="white-space: pre;" direction="ltr" dominant-baseline="text-before-edge">Balance of Vending Machine</text><text x="0" y="80" font-family="Virgil, Segoe UI Emoji" font-size="16px" fill="#1e1e1e" text-anchor="start" style="white-space: pre;" direction="ltr" dominant-baseline="text-before-edge">uint256 contractBalance;</text><text x="0" y="100" font-family="Virgil, Segoe UI Emoji" font-size="16px" fill="#1e1e1e" text-anchor="start" style="white-space: pre;" direction="ltr" dominant-baseline="text-before-edge"></text><text x="0" y="120" font-family="Virgil, Segoe UI Emoji" font-size="16px" fill="#1e1e1e" text-anchor="start" style="white-space: pre;" direction="ltr" dominant-baseline="text-before-edge">String Array of different snacks</text><text x="0" y="140" font-family="Virgil, Segoe UI Emoji" font-size="16px" fill="#1e1e1e" text-anchor="start" style="white-space: pre;" direction="ltr" dominant-baseline="text-before-edge">string[] snackNames;</text><text x="0" y="160" font-family="Virgil, Segoe UI Emoji" font-size="16px" fill="#1e1e1e" text-anchor="start" style="white-space: pre;" direction="ltr" dominant-baseline="text-before-edge"></text></g><g stroke-linecap="round" transform="translate(759.5941314697266 10) rotate(0 143.59307861328125 37.208709716796875)"><path d="M18.6 0 M18.6 0 C84.04 -0.67, 149.77 0.2, 268.58 0 M18.6 0 C81.94 -1.18, 146.53 -0.85, 268.58 0 M268.58 0 C279.61 1.46, 285.96 6.97, 287.19 18.6 M268.58 0 C279.34 0.68, 286.15 5.45, 287.19 18.6 M287.19 18.6 C287.49 25.73, 286.9 33, 287.19 55.81 M287.19 18.6 C286.97 30.8, 286.51 44.12, 287.19 55.81 M287.19 55.81 C287.18 67.84, 282.14 73.06, 268.58 74.42 M287.19 55.81 C286.33 70.35, 281.78 76.29, 268.58 74.42 M268.58 74.42 C212.57 75.9, 154.24 73.25, 18.6 74.42 M268.58 74.42 C215.91 74.3, 164.56 73.34, 18.6 74.42 M18.6 74.42 C5.96 73.99, 0.12 66.37, 0 55.81 M18.6 74.42 C8.18 72.89, -0.45 69.53, 0 55.81 M0 55.81 C1.83 46.56, 1.02 36.52, 0 18.6 M0 55.81 C-0.63 43.79, -0.07 30.17, 0 18.6 M0 18.6 C-1.33 6.24, 8.03 -0.36, 18.6 0 M0 18.6 C0.01 7.97, 4.1 1.28, 18.6 0" stroke="#1e1e1e" stroke-width="1" fill="none"></path></g><g transform="translate(814.2563629150391 25.641143798828125) rotate(0 96.24795532226562 20)"><text x="96.24795532226562" y="0" font-family="Virgil, Segoe UI Emoji" font-size="16px" fill="#1e1e1e" text-anchor="middle" style="white-space: pre;" direction="ltr" dominant-baseline="text-before-edge">Vending Machine Balance:</text><text x="96.24795532226562" y="20" font-family="Virgil, Segoe UI Emoji" font-size="16px" fill="#1e1e1e" text-anchor="middle" style="white-space: pre;" direction="ltr" dominant-baseline="text-before-edge">1 Ether</text></g><g stroke-linecap="round" transform="translate(355.01002502441406 117.25045776367188) rotate(0 26.16156005859375 15)"><path d="M7.5 0 M7.5 0 C19.26 -1.16, 32.57 1.19, 44.82 0 M7.5 0 C21.68 -0.46, 36.35 0.58, 44.82 0 M44.82 0 C50.26 1.15, 51.43 4.35, 52.32 7.5 M44.82 0 C51.13 -1.07, 51.32 3.45, 52.32 7.5 M52.32 7.5 C52.54 9.45, 52.13 12.52, 52.32 22.5 M52.32 7.5 C52.4 11, 52.53 15.77, 52.32 22.5 M52.32 22.5 C50.6 27.27, 48.36 28.34, 44.82 30 M52.32 22.5 C52.65 28.23, 48.32 29.3, 44.82 30 M44.82 30 C33.7 28.48, 24.96 30.02, 7.5 30 M44.82 30 C35.91 29.7, 26.66 29.31, 7.5 30 M7.5 30 C3.64 30.29, -0.87 26.26, 0 22.5 M7.5 30 C4.22 30.55, 1.49 28.18, 0 22.5 M0 22.5 C-0.42 16.14, -0.9 11.39, 0 7.5 M0 22.5 C0.63 19.89, -0.01 16.21, 0 7.5 M0 7.5 C-0.55 3.65, 2.46 -0.11, 7.5 0 M0 7.5 C-1.19 0.55, 3.3 1.86, 7.5 0" stroke="#1e1e1e" stroke-width="1" fill="none"></path></g><g transform="translate(373.7555923461914 122.25045776367188) rotate(0 7.415992736816406 10)"><text x="7.415992736816406" y="0" font-family="Virgil, Segoe UI Emoji" font-size="16px" fill="#1e1e1e" text-anchor="middle" style="white-space: pre;" direction="ltr" dominant-baseline="text-before-edge">A1</text></g><g stroke-linecap="round" transform="translate(613.3784942626953 110.30267333984375) rotate(0 26.16156005859375 15)"><path d="M7.5 0 M7.5 0 C19.07 -1.38, 28.64 -1.4, 44.82 0 M7.5 0 C21.11 0.91, 36.2 -0.03, 44.82 0 M44.82 0 C48.92 -1.15, 50.85 2.07, 52.32 7.5 M44.82 0 C50.69 -0.8, 52.7 1.87, 52.32 7.5 M52.32 7.5 C53.55 12.48, 52.94 17.92, 52.32 22.5 M52.32 7.5 C52.89 12.67, 52.61 17.32, 52.32 22.5 M52.32 22.5 C53.67 27.09, 48.57 30.16, 44.82 30 M52.32 22.5 C53.95 26.9, 50.44 28.26, 44.82 30 M44.82 30 C32.55 31.95, 24.84 30.03, 7.5 30 M44.82 30 C31.61 30.98, 18.82 30.94, 7.5 30 M7.5 30 C1.71 28.9, -1.06 27.49, 0 22.5 M7.5 30 C2.54 29.21, -2.28 28.31, 0 22.5 M0 22.5 C0.94 17.99, 0.04 10.19, 0 7.5 M0 22.5 C0 17.23, 0.34 10.79, 0 7.5 M0 7.5 C-1.03 0.54, 2.69 1.98, 7.5 0 M0 7.5 C-1.08 4.64, 3.82 1.94, 7.5 0" stroke="#1e1e1e" stroke-width="1" fill="none"></path></g><g transform="translate(628.0280609130859 115.30267333984375) rotate(0 11.511993408203125 10)"><text x="11.511993408203125" y="0" font-family="Virgil, Segoe UI Emoji" font-size="16px" fill="#1e1e1e" text-anchor="middle" style="white-space: pre;" direction="ltr" dominant-baseline="text-before-edge">B2</text></g><g stroke-linecap="round" transform="translate(613.5849151611328 148.73751831054688) rotate(0 26.16156005859375 15)"><path d="M7.5 0 M7.5 0 C15.6 -1.53, 27.56 -1.07, 44.82 0 M7.5 0 C17.79 -0.32, 27.4 -0.25, 44.82 0 M44.82 0 C49.85 0.6, 51.26 3.75, 52.32 7.5 M44.82 0 C51.68 0.91, 51.25 4.66, 52.32 7.5 M52.32 7.5 C52.03 12.79, 53.62 16.37, 52.32 22.5 M52.32 7.5 C52.4 13.53, 51.94 18.52, 52.32 22.5 M52.32 22.5 C50.37 28.64, 48.39 29.29, 44.82 30 M52.32 22.5 C50.18 25.74, 52.03 29.31, 44.82 30 M44.82 30 C35.47 29.37, 24.86 29.03, 7.5 30 M44.82 30 C34.85 30.37, 22.29 30.2, 7.5 30 M7.5 30 C3.15 30.03, -1.26 27.98, 0 22.5 M7.5 30 C4.01 29.29, -0.74 26.14, 0 22.5 M0 22.5 C1.06 17.59, -1.28 12.27, 0 7.5 M0 22.5 C-0.44 17.42, 0.57 12.12, 0 7.5 M0 7.5 C1.35 3.07, 3.77 0.3, 7.5 0 M0 7.5 C-0.23 4.34, 1.87 1.43, 7.5 0" stroke="#1e1e1e" stroke-width="1" fill="none"></path></g><g transform="translate(629.146484375 153.73751831054688) rotate(0 10.599990844726562 10)"><text x="10.599990844726562" y="0" font-family="Virgil, Segoe UI Emoji" font-size="16px" fill="#1e1e1e" text-anchor="middle" style="white-space: pre;" direction="ltr" dominant-baseline="text-before-edge">C3</text></g><g stroke-linecap="round" transform="translate(563.1245269775391 188.72857666015625) rotate(0 75.5 35)"><path d="M17.5 0 M17.5 0 C55.52 0.57, 92.64 1.01, 133.5 0 M17.5 0 C46.82 0.32, 76.31 0.7, 133.5 0 M133.5 0 C146.63 -0.87, 151.7 7.82, 151 17.5 M133.5 0 C143.58 0.18, 152.13 6.08, 151 17.5 M151 17.5 C149.48 32.75, 150.35 44.1, 151 52.5 M151 17.5 C150.17 28.82, 150.33 39.3, 151 52.5 M151 52.5 C151.59 64.37, 143.88 69.93, 133.5 70 M151 52.5 C152.77 65.16, 146.58 70.49, 133.5 70 M133.5 70 C97.19 69.44, 62.67 71.79, 17.5 70 M133.5 70 C90.6 69.88, 47.01 70.67, 17.5 70 M17.5 70 C5.53 68.43, 0.63 63.61, 0 52.5 M17.5 70 C5.44 69.14, -1.47 63.95, 0 52.5 M0 52.5 C1.81 40.51, 1.22 23.65, 0 17.5 M0 52.5 C-0.28 39.17, 0.27 24.19, 0 17.5 M0 17.5 C-0.73 6.03, 6.32 -1.6, 17.5 0 M0 17.5 C-1.12 7.28, 5.72 -1.24, 17.5 0" stroke="#1e1e1e" stroke-width="1" fill="none"></path></g><g transform="translate(568.1245269775391 203.72857666015625) rotate(0 65.9919662475586 20)"><text x="0" y="0" font-family="Virgil, Segoe UI Emoji" font-size="16px" fill="#1e1e1e" text-anchor="start" style="white-space: pre;" direction="ltr" dominant-baseline="text-before-edge"> Quantity: 1</text><text x="0" y="20" font-family="Virgil, Segoe UI Emoji" font-size="16px" fill="#1e1e1e" text-anchor="start" style="white-space: pre;" direction="ltr" dominant-baseline="text-before-edge"> Total: .001 Eth</text></g><g stroke-linecap="round" transform="translate(502.2157745361328 87.41317749023438) rotate(0 17 15)"><path d="M7.5 0 M7.5 0 C10.75 1.46, 15.61 0.14, 26.5 0 M7.5 0 C12.09 0.04, 16.33 -0.92, 26.5 0 M26.5 0 C31.64 -0.29, 33.33 2.05, 34 7.5 M26.5 0 C31.13 1.57, 36.12 1.11, 34 7.5 M34 7.5 C32.66 11.17, 34.36 12.35, 34 22.5 M34 7.5 C34.86 10.69, 34.06 14.71, 34 22.5 M34 22.5 C33.57 27.14, 31.15 30.01, 26.5 30 M34 22.5 C34.72 26.56, 30.07 29.37, 26.5 30 M26.5 30 C20.09 30.9, 10.84 30.78, 7.5 30 M26.5 30 C20.58 30.88, 15.31 29.63, 7.5 30 M7.5 30 C1.75 31.85, -1.69 28.74, 0 22.5 M7.5 30 C3.01 32.17, -1.33 25.72, 0 22.5 M0 22.5 C1.43 17.16, -0.42 14.57, 0 7.5 M0 22.5 C0.06 18.53, 0.32 15.12, 0 7.5 M0 7.5 C1.83 2.54, 1.68 -0.29, 7.5 0 M0 7.5 C0.78 1.71, 2.22 -0.55, 7.5 0" stroke="#1e1e1e" stroke-width="1" fill="none"></path></g><g transform="translate(508.0157775878906 92.41317749023438) rotate(0 11.199996948242188 10)"><text x="11.199996948242188" y="0" font-family="Virgil, Segoe UI Emoji" font-size="16px" fill="#1e1e1e" text-anchor="middle" style="white-space: pre;" direction="ltr" dominant-baseline="text-before-edge">20</text></g><g stroke-linecap="round" transform="translate(502.2624053955078 201.63580322265625) rotate(0 17 15)"><path d="M7.5 0 M7.5 0 C12.14 -0.04, 19.79 1.63, 26.5 0 M7.5 0 C11.28 0.23, 14.64 -0.8, 26.5 0 M26.5 0 C32.33 -0.04, 32.58 1.38, 34 7.5 M26.5 0 C32.79 -0.61, 33.96 4.74, 34 7.5 M34 7.5 C32.69 9.65, 32.9 15.44, 34 22.5 M34 7.5 C34.52 10.47, 34.1 13.18, 34 22.5 M34 22.5 C32.61 27.36, 31.13 28.63, 26.5 30 M34 22.5 C33.56 26.65, 30.44 29.14, 26.5 30 M26.5 30 C23.68 29.53, 18.27 29.03, 7.5 30 M26.5 30 C21.21 29.1, 16.73 28.98, 7.5 30 M7.5 30 C3.21 28.3, 1.72 26.18, 0 22.5 M7.5 30 C4.19 31.88, -1.43 29.35, 0 22.5 M0 22.5 C-0.2 20.56, 1.24 15.64, 0 7.5 M0 22.5 C-0.35 17.47, -0.18 12.5, 0 7.5 M0 7.5 C-1.18 1.71, 2.67 1.4, 7.5 0 M0 7.5 C-2.26 4.72, 3.48 2.2, 7.5 0" stroke="#1e1e1e" stroke-width="1" fill="none"></path></g><g transform="translate(508.0624084472656 206.63580322265625) rotate(0 11.199996948242188 10)"><text x="11.199996948242188" y="0" font-family="Virgil, Segoe UI Emoji" font-size="16px" fill="#1e1e1e" text-anchor="middle" style="white-space: pre;" direction="ltr" dominant-baseline="text-before-edge">20</text></g><g stroke-linecap="round" transform="translate(504.2661895751953 309.06573486328125) rotate(0 17 15)"><path d="M7.5 0 M7.5 0 C15.16 -0.53, 22.58 -1.75, 26.5 0 M7.5 0 C11 -0.53, 16.39 -0.25, 26.5 0 M26.5 0 C31.46 1.95, 32.36 4.13, 34 7.5 M26.5 0 C30.51 -2.2, 32.28 0.63, 34 7.5 M34 7.5 C34.65 14.19, 33.52 19.26, 34 22.5 M34 7.5 C33.76 10.3, 33.75 13.85, 34 22.5 M34 22.5 C33.07 26.75, 29.71 28.25, 26.5 30 M34 22.5 C32.53 28.93, 31.08 29.71, 26.5 30 M26.5 30 C20.79 28.75, 15.17 29.28, 7.5 30 M26.5 30 C23.49 29.21, 19.54 30.61, 7.5 30 M7.5 30 C1.26 31.61, -1.95 27.79, 0 22.5 M7.5 30 C3.92 29.72, 1.69 29.43, 0 22.5 M0 22.5 C-1.08 17.9, -0.35 14.53, 0 7.5 M0 22.5 C0.15 19.04, -0.65 15.26, 0 7.5 M0 7.5 C0.85 4.42, 1.14 0.75, 7.5 0 M0 7.5 C0.92 1.69, 2.4 1.21, 7.5 0" stroke="#1e1e1e" stroke-width="1" fill="none"></path></g><g transform="translate(510.0661926269531 314.06573486328125) rotate(0 11.199996948242188 10)"><text x="11.199996948242188" y="0" font-family="Virgil, Segoe UI Emoji" font-size="16px" fill="#1e1e1e" text-anchor="middle" style="white-space: pre;" direction="ltr" dominant-baseline="text-before-edge">20</text></g><g stroke-linecap="round"><g transform="translate(588.1109771728516 87.21823120117188) rotate(0 6.6923685793858 0.07670118452541885)"><path d="M0.21 0.31 C2.72 0.57, 12.31 1.08, 14.53 0.78 M-1.15 -0.57 C1.25 -0.54, 10.65 -0.69, 13.48 -0.72" stroke="#1e1e1e" stroke-width="4" fill="none"></path></g></g><mask></mask><g stroke-linecap="round"><g transform="translate(589.0731496090907 163.3881120478964) rotate(0 7.4446718832663805 0.018784892577684786)"><path d="M0.2 -0.52 C2.36 -0.31, 11.57 -0.12, 13.81 0.08 M-1.15 1.82 C1.3 1.77, 13.18 -1.3, 16.04 -1.78" stroke="#1e1e1e" stroke-width="4" fill="none"></path></g></g><mask></mask><g stroke-linecap="round"><g transform="translate(586.6433400387782 124.91591356156835) rotate(0 7.570229076128442 -0.10256262157112417)"><path d="M0.49 -1.06 C3.22 -0.83, 13.54 0.43, 15.85 0.46 M-0.71 1 C2 0.98, 13.13 -1.07, 15.49 -1.2" stroke="#1e1e1e" stroke-width="4" fill="none"></path></g></g><mask></mask><g stroke-linecap="round"><g transform="translate(674.7150421142578 85.12481689453125) rotate(0 10.556659399103353 0.14392364438623417)"><path d="M0.67 -0.77 C4.19 -0.72, 18.36 0.47, 21.55 0.68 M-0.44 1.44 C2.97 1.09, 17.31 -0.63, 21.1 -1.15" stroke="#1e1e1e" stroke-width="2" fill="none"></path></g></g><mask></mask><g stroke-linecap="round"><g transform="translate(685.4152186526546 96.32412445131689) rotate(0 -0.018964420400550352 -11.397806427655752)"><path d="M-0.41 -0.33 C-0.68 -3.73, -1.72 -17.24, -1.61 -20.55 M1.57 -1.54 C1.68 -5.3, 0.96 -19.03, 0.71 -22.47" stroke="#1e1e1e" stroke-width="2" fill="none"></path></g></g><mask></mask><g stroke-linecap="round"><g transform="translate(695.2040993080959 164.40854861515572) rotate(0 -7.976268570143759 -0.6119957304280206)"><path d="M-0.27 -0.4 C-3.14 -0.17, -14.02 0.42, -16.62 0.44 M1.78 -1.66 C-1.32 -1.65, -14.71 -0.94, -17.74 -1.05" stroke="#1e1e1e" stroke-width="2" fill="none"></path></g></g><mask></mask><g stroke-linecap="round"><g transform="translate(686.9776588784084 133.52311160343703) rotate(0 0.041153018753959714 -9.565240369420493)"><path d="M1.2 0.45 C1.2 -2.47, -0.08 -14.55, -0.42 -17.87 M0.37 -0.36 C0.28 -3.59, -0.8 -16.55, -1.11 -19.58" stroke="#1e1e1e" stroke-width="2" fill="none"></path></g></g><mask></mask><g stroke-linecap="round"><g transform="translate(686.7494484291897 173.13590457218697) rotate(0 0.07955898377116455 -9.139554145811132)"><path d="M0.79 0.07 C0.54 -2.8, -1.06 -13.89, -1.06 -16.73 M-0.26 -0.94 C-0.17 -4.17, 1.09 -15.36, 1.22 -18.35" stroke="#1e1e1e" stroke-width="2" fill="none"></path></g></g><mask></mask><g stroke-linecap="round"><g transform="translate(676.6100441323147 123.5935156561714) rotate(0 10.270905426275021 -0.1079866282157127)"><path d="M0.95 1.04 C4.37 1.27, 17.34 0.82, 20.55 0.57 M-0.01 0.54 C3.31 0.47, 16.71 -1.31, 19.98 -1.32" stroke="#1e1e1e" stroke-width="2" fill="none"></path></g></g><mask></mask><g stroke-linecap="round" transform="translate(764.9969635009766 111.22518920898438) rotate(0 141.107421875 95.36332702636719)"><path d="M32 0 M32 0 C116.41 2.25, 200.15 2.01, 250.21 0 M32 0 C91.13 -0.78, 149.43 -0.44, 250.21 0 M250.21 0 C272.77 0.78, 283.97 10.09, 282.21 32 M250.21 0 C271.91 1.11, 280.11 9.83, 282.21 32 M282.21 32 C282.16 70.65, 279.89 108.39, 282.21 158.73 M282.21 32 C281.5 60.71, 282.43 88.15, 282.21 158.73 M282.21 158.73 C282.78 181.95, 270.68 189.72, 250.21 190.73 M282.21 158.73 C279.98 181.76, 269.47 189.49, 250.21 190.73 M250.21 190.73 C165.57 190.46, 79.93 192.2, 32 190.73 M250.21 190.73 C204.38 190.08, 158.2 189.68, 32 190.73 M32 190.73 C9.38 189.53, 0.84 181.53, 0 158.73 M32 190.73 C12.33 192.27, 0.28 181.67, 0 158.73 M0 158.73 C2.36 131.22, 0.09 106.39, 0 32 M0 158.73 C1.42 117.67, -0.09 75.62, 0 32 M0 32 C-1.46 11.66, 10.1 1.71, 32 0 M0 32 C-1 12.19, 12.44 -0.1, 32 0" stroke="#1e1e1e" stroke-width="2" fill="none"></path></g><g stroke-linecap="round" transform="translate(845.5858306884766 261.4737548828125) rotate(0 63.77099609375 15.890579223632812)"><path d="M7.95 0 M7.95 0 C39.95 0.87, 69.61 -2.23, 119.6 0 M7.95 0 C35.43 0.46, 62.86 0.29, 119.6 0 M119.6 0 C125.8 0.3, 125.77 2.35, 127.54 7.95 M119.6 0 C126.38 -1.71, 126.32 2.05, 127.54 7.95 M127.54 7.95 C128.64 13.84, 125.93 18.79, 127.54 23.84 M127.54 7.95 C127.19 13.22, 128.29 17.35, 127.54 23.84 M127.54 23.84 C125.69 30.81, 125.71 32.66, 119.6 31.78 M127.54 23.84 C127.07 30.01, 122.88 29.98, 119.6 31.78 M119.6 31.78 C87.2 32.07, 52.32 31.14, 7.95 31.78 M119.6 31.78 C84.06 32.01, 47.36 31.29, 7.95 31.78 M7.95 31.78 C3.3 32.14, 0.04 30.71, 0 23.84 M7.95 31.78 C1.27 30.58, -1.21 31, 0 23.84 M0 23.84 C-1.29 17.83, 1.22 9.84, 0 7.95 M0 23.84 C-0.13 18.41, -0.18 14.16, 0 7.95 M0 7.95 C1.42 2.67, 1.59 0.45, 7.95 0 M0 7.95 C-1.79 1.82, 4.37 1.56, 7.95 0" stroke="#1e1e1e" stroke-width="2" fill="none"></path></g><g transform="translate(878.3488464355469 267.3643341064453) rotate(0 31.007980346679688 10)"><text x="31.007980346679688" y="0" font-family="Virgil, Segoe UI Emoji" font-size="16px" fill="#1e1e1e" text-anchor="middle" style="white-space: pre;" direction="ltr" dominant-baseline="text-before-edge">Restock</text></g><g stroke-linecap="round" transform="translate(775.2309112548828 137.53143310546875) rotate(0 130.32009887695312 57.6888427734375)"><path d="M28.84 0 M28.84 0 C75.17 -2.21, 118.15 -2.02, 231.8 0 M28.84 0 C100.27 -0.9, 172.2 -1.1, 231.8 0 M231.8 0 C252.05 -1.47, 262.1 8.76, 260.64 28.84 M231.8 0 C251.05 -2.21, 260.62 7.41, 260.64 28.84 M260.64 28.84 C258.9 47.95, 262.06 65.16, 260.64 86.53 M260.64 28.84 C260.69 45.74, 260.42 64.43, 260.64 86.53 M260.64 86.53 C261.12 106.62, 249.99 116.29, 231.8 115.38 M260.64 86.53 C262.47 107.76, 253.25 114.28, 231.8 115.38 M231.8 115.38 C178.45 112.02, 126.8 112.65, 28.84 115.38 M231.8 115.38 C182.9 113.81, 132.18 113.94, 28.84 115.38 M28.84 115.38 C7.91 117.32, -0.07 106.63, 0 86.53 M28.84 115.38 C11.6 113.19, -1.26 105.75, 0 86.53 M0 86.53 C2.04 67.64, 0.84 50.91, 0 28.84 M0 86.53 C1.3 73.64, 0.5 62.4, 0 28.84 M0 28.84 C0.21 8.62, 10.1 0.86, 28.84 0 M0 28.84 C1.65 7.51, 10.97 -0.41, 28.84 0" stroke="#1e1e1e" stroke-width="2" fill="none"></path></g><g transform="translate(853.5488433837891 157.78033447265625) rotate(0 57.19197082519531 30)"><text x="0" y="0" font-family="Virgil, Segoe UI Emoji" font-size="16px" fill="#1e1e1e" text-anchor="start" style="white-space: pre;" direction="ltr" dominant-baseline="text-before-edge">Chips: 1/20</text><text x="0" y="20" font-family="Virgil, Segoe UI Emoji" font-size="16px" fill="#1e1e1e" text-anchor="start" style="white-space: pre;" direction="ltr" dominant-baseline="text-before-edge">Drinks: 0/20</text><text x="0" y="40" font-family="Virgil, Segoe UI Emoji" font-size="16px" fill="#1e1e1e" text-anchor="start" style="white-space: pre;" direction="ltr" dominant-baseline="text-before-edge">Cookies: 10/20</text></g><g stroke-linecap="round" transform="translate(784.9781036376953 339.56585693359375) rotate(0 116.90328979492188 29.3411865234375)"><path d="M14.67 0 M14.67 0 C77.18 2.14, 140 0.42, 219.14 0 M14.67 0 C87.3 -1.61, 160.04 -1.62, 219.14 0 M219.14 0 C229.93 -1.73, 235.71 6.59, 233.81 14.67 M219.14 0 C230.39 0.54, 235.44 5.56, 233.81 14.67 M233.81 14.67 C234.24 24.02, 234.65 32.63, 233.81 44.01 M233.81 14.67 C232.99 25.15, 233.99 33.69, 233.81 44.01 M233.81 44.01 C233.91 52.34, 230.75 56.81, 219.14 58.68 M233.81 44.01 C233.41 56.09, 228.28 59.64, 219.14 58.68 M219.14 58.68 C170.32 58.73, 123.13 59.71, 14.67 58.68 M219.14 58.68 C176.92 57.4, 136.19 57.18, 14.67 58.68 M14.67 58.68 C6.83 58.5, -0.79 53.2, 0 44.01 M14.67 58.68 C5.6 60.84, 1.15 51.78, 0 44.01 M0 44.01 C0.55 33.86, -1.89 23.86, 0 14.67 M0 44.01 C0.75 33.71, 0.29 23.57, 0 14.67 M0 14.67 C0.02 3.77, 5.66 1.13, 14.67 0 M0 14.67 C0.7 6.1, 3.3 -0.34, 14.67 0" stroke="#1e1e1e" stroke-width="2" fill="none"></path></g><g transform="translate(812.7097321861816 352.8863525390625) rotate(0 85.3143310546875 14.186987502059623)"><text x="85.3143310546875" y="0" font-family="Virgil, Segoe UI Emoji" font-size="22.699180003295396px" fill="#1e1e1e" text-anchor="middle" style="white-space: pre;" direction="ltr" dominant-baseline="text-before-edge">Withdraw Funds</text></g></svg>